<?xml version="1.0" encoding="utf-8" standalone="no"?>
<!DOCTYPE svg PUBLIC "-//W3C//DTD SVG 1.1//EN"
  "http://www.w3.org/Graphics/SVG/1.1/DTD/svg11.dtd">
<svg xmlns:xlink="http://www.w3.org/1999/xlink" width="335.56pt" height="231.84pt" viewBox="0 0 335.56 231.84" xmlns="http://www.w3.org/2000/svg" version="1.1">
 <metadata>
  <rdf:RDF xmlns:dc="http://purl.org/dc/elements/1.1/" xmlns:cc="http://creativecommons.org/ns#" xmlns:rdf="http://www.w3.org/1999/02/22-rdf-syntax-ns#">
   <cc:Work>
    <dc:type rdf:resource="http://purl.org/dc/dcmitype/StillImage"/>
    <dc:date>2022-10-07T17:16:24.453178</dc:date>
    <dc:format>image/svg+xml</dc:format>
    <dc:creator>
     <cc:Agent>
      <dc:title>Matplotlib v3.5.2, https://matplotlib.org/</dc:title>
     </cc:Agent>
    </dc:creator>
   </cc:Work>
  </rdf:RDF>
 </metadata>
 <defs>
  <style type="text/css">*{stroke-linejoin: round; stroke-linecap: butt}</style>
 </defs>
 <g id="figure_1">
  <g id="patch_1">
   <path d="M 0 231.84 
L 335.56 231.84 
L 335.56 0 
L 0 0 
L 0 231.84 
z
" style="fill: none"/>
  </g>
  <g id="axes_1">
   <g id="patch_2">
    <path d="M 219.64 28.944 
C 217.567276 28.944 215.495215 29.018093 213.427785 29.166136 
C 211.360355 29.314179 209.298878 29.536078 207.247302 29.831408 
L 219.64 115.92 
L 219.64 28.944 
z
" style="fill: #1f77b4"/>
   </g>
   <g id="patch_3">
    <path d="M 207.247302 29.831408 
C 206.707467 29.909119 206.168375 29.991906 205.630098 30.079758 
C 205.09182 30.167609 204.554381 30.260522 204.017851 30.358484 
L 219.64 115.92 
L 207.247302 29.831408 
z
" style="fill: #ff7f0e"/>
   </g>
   <g id="patch_4">
    <path d="M 204.017851 30.358484 
C 203.588628 30.436853 203.160001 30.518451 202.732007 30.60327 
C 202.304012 30.68809 201.876662 30.776129 201.449992 30.86738 
L 219.64 115.92 
L 204.017851 30.358484 
z
" style="fill: #2ca02c"/>
   </g>
   <g id="patch_5">
    <path d="M 201.449992 30.86738 
C 196.005808 32.031715 190.685972 33.716085 185.563751 35.897292 
C 180.441531 38.078498 175.540549 40.746482 170.928306 43.864498 
L 219.64 115.92 
L 201.449992 30.86738 
z
" style="fill: #d62728"/>
   </g>
   <g id="patch_6">
    <path d="M 170.928306 43.864498 
C 157.007446 53.275419 146.107642 66.521897 139.55333 81.994349 
C 132.999018 97.466801 131.066877 114.512086 133.991682 131.059028 
C 136.916487 147.60597 144.574772 162.95607 156.035978 175.244135 
C 167.497184 187.532199 182.277497 196.23951 198.580958 200.30804 
L 219.64 115.92 
L 170.928306 43.864498 
z
" style="fill: #9467bd"/>
   </g>
   <g id="patch_7">
    <path d="M 198.580958 200.30804 
C 211.334661 203.490728 224.645483 203.74116 237.509877 201.040456 
C 250.374271 198.339752 262.460608 192.757534 272.857658 184.714662 
C 283.254708 176.67179 291.694447 166.375601 297.540576 154.602359 
C 303.386704 142.829117 306.488515 129.882324 306.612153 116.738079 
L 219.64 115.92 
L 198.580958 200.30804 
z
" style="fill: #8c564b"/>
   </g>
   <g id="patch_8">
    <path d="M 306.612153 116.738079 
C 306.720229 105.248173 304.550342 93.849928 300.228148 83.203413 
C 295.905953 72.556898 289.516527 62.871671 281.429878 54.708599 
C 273.343228 46.545527 263.718527 40.065286 253.113137 35.643144 
C 242.507747 31.221002 231.130416 28.944 219.640001 28.944 
L 219.64 115.92 
L 306.612153 116.738079 
z
" style="fill: #e377c2"/>
   </g>
   <g id="matplotlib.axis_1"/>
   <g id="matplotlib.axis_2"/>
   <g id="legend_1">
    <g id="patch_9">
     <path d="M 9.2 168.793437 
L 128.903125 168.793437 
Q 130.903125 168.793437 130.903125 166.793437 
L 130.903125 65.046562 
Q 130.903125 63.046562 128.903125 63.046562 
L 9.2 63.046562 
Q 7.2 63.046562 7.2 65.046562 
L 7.2 166.793437 
Q 7.2 168.793437 9.2 168.793437 
z
" style="fill: #ffffff; opacity: 0.8; stroke: #cccccc; stroke-linejoin: miter"/>
    </g>
    <g id="patch_10">
     <path d="M 11.2 74.645 
L 31.2 74.645 
L 31.2 67.645 
L 11.2 67.645 
z
" style="fill: #1f77b4"/>
    </g>
    <g id="text_1">
     <!-- 1.1 - 2.3% (19) -->
     <g transform="translate(39.2 74.645)scale(0.1 -0.1)">
      <defs>
       <path id="DejaVuSans-31" d="M 794 531 
L 1825 531 
L 1825 4091 
L 703 3866 
L 703 4441 
L 1819 4666 
L 2450 4666 
L 2450 531 
L 3481 531 
L 3481 0 
L 794 0 
L 794 531 
z
" transform="scale(0.015625)"/>
       <path id="DejaVuSans-2e" d="M 684 794 
L 1344 794 
L 1344 0 
L 684 0 
L 684 794 
z
" transform="scale(0.015625)"/>
       <path id="DejaVuSans-20" transform="scale(0.015625)"/>
       <path id="DejaVuSans-2d" d="M 313 2009 
L 1997 2009 
L 1997 1497 
L 313 1497 
L 313 2009 
z
" transform="scale(0.015625)"/>
       <path id="DejaVuSans-32" d="M 1228 531 
L 3431 531 
L 3431 0 
L 469 0 
L 469 531 
Q 828 903 1448 1529 
Q 2069 2156 2228 2338 
Q 2531 2678 2651 2914 
Q 2772 3150 2772 3378 
Q 2772 3750 2511 3984 
Q 2250 4219 1831 4219 
Q 1534 4219 1204 4116 
Q 875 4013 500 3803 
L 500 4441 
Q 881 4594 1212 4672 
Q 1544 4750 1819 4750 
Q 2544 4750 2975 4387 
Q 3406 4025 3406 3419 
Q 3406 3131 3298 2873 
Q 3191 2616 2906 2266 
Q 2828 2175 2409 1742 
Q 1991 1309 1228 531 
z
" transform="scale(0.015625)"/>
       <path id="DejaVuSans-33" d="M 2597 2516 
Q 3050 2419 3304 2112 
Q 3559 1806 3559 1356 
Q 3559 666 3084 287 
Q 2609 -91 1734 -91 
Q 1441 -91 1130 -33 
Q 819 25 488 141 
L 488 750 
Q 750 597 1062 519 
Q 1375 441 1716 441 
Q 2309 441 2620 675 
Q 2931 909 2931 1356 
Q 2931 1769 2642 2001 
Q 2353 2234 1838 2234 
L 1294 2234 
L 1294 2753 
L 1863 2753 
Q 2328 2753 2575 2939 
Q 2822 3125 2822 3475 
Q 2822 3834 2567 4026 
Q 2313 4219 1838 4219 
Q 1578 4219 1281 4162 
Q 984 4106 628 3988 
L 628 4550 
Q 988 4650 1302 4700 
Q 1616 4750 1894 4750 
Q 2613 4750 3031 4423 
Q 3450 4097 3450 3541 
Q 3450 3153 3228 2886 
Q 3006 2619 2597 2516 
z
" transform="scale(0.015625)"/>
       <path id="DejaVuSans-25" d="M 4653 2053 
Q 4381 2053 4226 1822 
Q 4072 1591 4072 1178 
Q 4072 772 4226 539 
Q 4381 306 4653 306 
Q 4919 306 5073 539 
Q 5228 772 5228 1178 
Q 5228 1588 5073 1820 
Q 4919 2053 4653 2053 
z
M 4653 2450 
Q 5147 2450 5437 2106 
Q 5728 1763 5728 1178 
Q 5728 594 5436 251 
Q 5144 -91 4653 -91 
Q 4153 -91 3862 251 
Q 3572 594 3572 1178 
Q 3572 1766 3864 2108 
Q 4156 2450 4653 2450 
z
M 1428 4353 
Q 1159 4353 1004 4120 
Q 850 3888 850 3481 
Q 850 3069 1003 2837 
Q 1156 2606 1428 2606 
Q 1700 2606 1854 2837 
Q 2009 3069 2009 3481 
Q 2009 3884 1853 4118 
Q 1697 4353 1428 4353 
z
M 4250 4750 
L 4750 4750 
L 1831 -91 
L 1331 -91 
L 4250 4750 
z
M 1428 4750 
Q 1922 4750 2215 4408 
Q 2509 4066 2509 3481 
Q 2509 2891 2217 2550 
Q 1925 2209 1428 2209 
Q 931 2209 642 2551 
Q 353 2894 353 3481 
Q 353 4063 643 4406 
Q 934 4750 1428 4750 
z
" transform="scale(0.015625)"/>
       <path id="DejaVuSans-28" d="M 1984 4856 
Q 1566 4138 1362 3434 
Q 1159 2731 1159 2009 
Q 1159 1288 1364 580 
Q 1569 -128 1984 -844 
L 1484 -844 
Q 1016 -109 783 600 
Q 550 1309 550 2009 
Q 550 2706 781 3412 
Q 1013 4119 1484 4856 
L 1984 4856 
z
" transform="scale(0.015625)"/>
       <path id="DejaVuSans-39" d="M 703 97 
L 703 672 
Q 941 559 1184 500 
Q 1428 441 1663 441 
Q 2288 441 2617 861 
Q 2947 1281 2994 2138 
Q 2813 1869 2534 1725 
Q 2256 1581 1919 1581 
Q 1219 1581 811 2004 
Q 403 2428 403 3163 
Q 403 3881 828 4315 
Q 1253 4750 1959 4750 
Q 2769 4750 3195 4129 
Q 3622 3509 3622 2328 
Q 3622 1225 3098 567 
Q 2575 -91 1691 -91 
Q 1453 -91 1209 -44 
Q 966 3 703 97 
z
M 1959 2075 
Q 2384 2075 2632 2365 
Q 2881 2656 2881 3163 
Q 2881 3666 2632 3958 
Q 2384 4250 1959 4250 
Q 1534 4250 1286 3958 
Q 1038 3666 1038 3163 
Q 1038 2656 1286 2365 
Q 1534 2075 1959 2075 
z
" transform="scale(0.015625)"/>
       <path id="DejaVuSans-29" d="M 513 4856 
L 1013 4856 
Q 1481 4119 1714 3412 
Q 1947 2706 1947 2009 
Q 1947 1309 1714 600 
Q 1481 -109 1013 -844 
L 513 -844 
Q 928 -128 1133 580 
Q 1338 1288 1338 2009 
Q 1338 2731 1133 3434 
Q 928 4138 513 4856 
z
" transform="scale(0.015625)"/>
      </defs>
      <use xlink:href="#DejaVuSans-31"/>
      <use xlink:href="#DejaVuSans-2e" x="63.623047"/>
      <use xlink:href="#DejaVuSans-31" x="95.410156"/>
      <use xlink:href="#DejaVuSans-20" x="159.033203"/>
      <use xlink:href="#DejaVuSans-2d" x="190.820312"/>
      <use xlink:href="#DejaVuSans-20" x="226.904297"/>
      <use xlink:href="#DejaVuSans-32" x="258.691406"/>
      <use xlink:href="#DejaVuSans-2e" x="322.314453"/>
      <use xlink:href="#DejaVuSans-33" x="354.101562"/>
      <use xlink:href="#DejaVuSans-25" x="417.724609"/>
      <use xlink:href="#DejaVuSans-20" x="512.744141"/>
      <use xlink:href="#DejaVuSans-28" x="544.53125"/>
      <use xlink:href="#DejaVuSans-31" x="583.544922"/>
      <use xlink:href="#DejaVuSans-39" x="647.167969"/>
      <use xlink:href="#DejaVuSans-29" x="710.791016"/>
     </g>
    </g>
    <g id="patch_11">
     <path d="M 11.2 89.323125 
L 31.2 89.323125 
L 31.2 82.323125 
L 11.2 82.323125 
z
" style="fill: #ff7f0e"/>
    </g>
    <g id="text_2">
     <!-- 1.2 - 0.6% (5) -->
     <g transform="translate(39.2 89.323125)scale(0.1 -0.1)">
      <defs>
       <path id="DejaVuSans-30" d="M 2034 4250 
Q 1547 4250 1301 3770 
Q 1056 3291 1056 2328 
Q 1056 1369 1301 889 
Q 1547 409 2034 409 
Q 2525 409 2770 889 
Q 3016 1369 3016 2328 
Q 3016 3291 2770 3770 
Q 2525 4250 2034 4250 
z
M 2034 4750 
Q 2819 4750 3233 4129 
Q 3647 3509 3647 2328 
Q 3647 1150 3233 529 
Q 2819 -91 2034 -91 
Q 1250 -91 836 529 
Q 422 1150 422 2328 
Q 422 3509 836 4129 
Q 1250 4750 2034 4750 
z
" transform="scale(0.015625)"/>
       <path id="DejaVuSans-36" d="M 2113 2584 
Q 1688 2584 1439 2293 
Q 1191 2003 1191 1497 
Q 1191 994 1439 701 
Q 1688 409 2113 409 
Q 2538 409 2786 701 
Q 3034 994 3034 1497 
Q 3034 2003 2786 2293 
Q 2538 2584 2113 2584 
z
M 3366 4563 
L 3366 3988 
Q 3128 4100 2886 4159 
Q 2644 4219 2406 4219 
Q 1781 4219 1451 3797 
Q 1122 3375 1075 2522 
Q 1259 2794 1537 2939 
Q 1816 3084 2150 3084 
Q 2853 3084 3261 2657 
Q 3669 2231 3669 1497 
Q 3669 778 3244 343 
Q 2819 -91 2113 -91 
Q 1303 -91 875 529 
Q 447 1150 447 2328 
Q 447 3434 972 4092 
Q 1497 4750 2381 4750 
Q 2619 4750 2861 4703 
Q 3103 4656 3366 4563 
z
" transform="scale(0.015625)"/>
       <path id="DejaVuSans-35" d="M 691 4666 
L 3169 4666 
L 3169 4134 
L 1269 4134 
L 1269 2991 
Q 1406 3038 1543 3061 
Q 1681 3084 1819 3084 
Q 2600 3084 3056 2656 
Q 3513 2228 3513 1497 
Q 3513 744 3044 326 
Q 2575 -91 1722 -91 
Q 1428 -91 1123 -41 
Q 819 9 494 109 
L 494 744 
Q 775 591 1075 516 
Q 1375 441 1709 441 
Q 2250 441 2565 725 
Q 2881 1009 2881 1497 
Q 2881 1984 2565 2268 
Q 2250 2553 1709 2553 
Q 1456 2553 1204 2497 
Q 953 2441 691 2322 
L 691 4666 
z
" transform="scale(0.015625)"/>
      </defs>
      <use xlink:href="#DejaVuSans-31"/>
      <use xlink:href="#DejaVuSans-2e" x="63.623047"/>
      <use xlink:href="#DejaVuSans-32" x="95.410156"/>
      <use xlink:href="#DejaVuSans-20" x="159.033203"/>
      <use xlink:href="#DejaVuSans-2d" x="190.820312"/>
      <use xlink:href="#DejaVuSans-20" x="226.904297"/>
      <use xlink:href="#DejaVuSans-30" x="258.691406"/>
      <use xlink:href="#DejaVuSans-2e" x="322.314453"/>
      <use xlink:href="#DejaVuSans-36" x="354.101562"/>
      <use xlink:href="#DejaVuSans-25" x="417.724609"/>
      <use xlink:href="#DejaVuSans-20" x="512.744141"/>
      <use xlink:href="#DejaVuSans-28" x="544.53125"/>
      <use xlink:href="#DejaVuSans-35" x="583.544922"/>
      <use xlink:href="#DejaVuSans-29" x="647.167969"/>
     </g>
    </g>
    <g id="patch_12">
     <path d="M 11.2 104.00125 
L 31.2 104.00125 
L 31.2 97.00125 
L 11.2 97.00125 
z
" style="fill: #2ca02c"/>
    </g>
    <g id="text_3">
     <!-- 1.3 - 0.5% (4) -->
     <g transform="translate(39.2 104.00125)scale(0.1 -0.1)">
      <defs>
       <path id="DejaVuSans-34" d="M 2419 4116 
L 825 1625 
L 2419 1625 
L 2419 4116 
z
M 2253 4666 
L 3047 4666 
L 3047 1625 
L 3713 1625 
L 3713 1100 
L 3047 1100 
L 3047 0 
L 2419 0 
L 2419 1100 
L 313 1100 
L 313 1709 
L 2253 4666 
z
" transform="scale(0.015625)"/>
      </defs>
      <use xlink:href="#DejaVuSans-31"/>
      <use xlink:href="#DejaVuSans-2e" x="63.623047"/>
      <use xlink:href="#DejaVuSans-33" x="95.410156"/>
      <use xlink:href="#DejaVuSans-20" x="159.033203"/>
      <use xlink:href="#DejaVuSans-2d" x="190.820312"/>
      <use xlink:href="#DejaVuSans-20" x="226.904297"/>
      <use xlink:href="#DejaVuSans-30" x="258.691406"/>
      <use xlink:href="#DejaVuSans-2e" x="322.314453"/>
      <use xlink:href="#DejaVuSans-35" x="354.101562"/>
      <use xlink:href="#DejaVuSans-25" x="417.724609"/>
      <use xlink:href="#DejaVuSans-20" x="512.744141"/>
      <use xlink:href="#DejaVuSans-28" x="544.53125"/>
      <use xlink:href="#DejaVuSans-34" x="583.544922"/>
      <use xlink:href="#DejaVuSans-29" x="647.167969"/>
     </g>
    </g>
    <g id="patch_13">
     <path d="M 11.2 118.679375 
L 31.2 118.679375 
L 31.2 111.679375 
L 11.2 111.679375 
z
" style="fill: #d62728"/>
    </g>
    <g id="text_4">
     <!-- 1.4 - 6.1% (51) -->
     <g transform="translate(39.2 118.679375)scale(0.1 -0.1)">
      <use xlink:href="#DejaVuSans-31"/>
      <use xlink:href="#DejaVuSans-2e" x="63.623047"/>
      <use xlink:href="#DejaVuSans-34" x="95.410156"/>
      <use xlink:href="#DejaVuSans-20" x="159.033203"/>
      <use xlink:href="#DejaVuSans-2d" x="190.820312"/>
      <use xlink:href="#DejaVuSans-20" x="226.904297"/>
      <use xlink:href="#DejaVuSans-36" x="258.691406"/>
      <use xlink:href="#DejaVuSans-2e" x="322.314453"/>
      <use xlink:href="#DejaVuSans-31" x="354.101562"/>
      <use xlink:href="#DejaVuSans-25" x="417.724609"/>
      <use xlink:href="#DejaVuSans-20" x="512.744141"/>
      <use xlink:href="#DejaVuSans-28" x="544.53125"/>
      <use xlink:href="#DejaVuSans-35" x="583.544922"/>
      <use xlink:href="#DejaVuSans-31" x="647.167969"/>
      <use xlink:href="#DejaVuSans-29" x="710.791016"/>
     </g>
    </g>
    <g id="patch_14">
     <path d="M 11.2 133.3575 
L 31.2 133.3575 
L 31.2 126.3575 
L 11.2 126.3575 
z
" style="fill: #9467bd"/>
    </g>
    <g id="text_5">
     <!-- 1.5 - 36.6% (306) -->
     <g transform="translate(39.2 133.3575)scale(0.1 -0.1)">
      <use xlink:href="#DejaVuSans-31"/>
      <use xlink:href="#DejaVuSans-2e" x="63.623047"/>
      <use xlink:href="#DejaVuSans-35" x="95.410156"/>
      <use xlink:href="#DejaVuSans-20" x="159.033203"/>
      <use xlink:href="#DejaVuSans-2d" x="190.820312"/>
      <use xlink:href="#DejaVuSans-20" x="226.904297"/>
      <use xlink:href="#DejaVuSans-33" x="258.691406"/>
      <use xlink:href="#DejaVuSans-36" x="322.314453"/>
      <use xlink:href="#DejaVuSans-2e" x="385.9375"/>
      <use xlink:href="#DejaVuSans-36" x="417.724609"/>
      <use xlink:href="#DejaVuSans-25" x="481.347656"/>
      <use xlink:href="#DejaVuSans-20" x="576.367188"/>
      <use xlink:href="#DejaVuSans-28" x="608.154297"/>
      <use xlink:href="#DejaVuSans-33" x="647.167969"/>
      <use xlink:href="#DejaVuSans-30" x="710.791016"/>
      <use xlink:href="#DejaVuSans-36" x="774.414062"/>
      <use xlink:href="#DejaVuSans-29" x="838.037109"/>
     </g>
    </g>
    <g id="patch_15">
     <path d="M 11.2 148.035625 
L 31.2 148.035625 
L 31.2 141.035625 
L 11.2 141.035625 
z
" style="fill: #8c564b"/>
    </g>
    <g id="text_6">
     <!-- 1.6 - 28.7% (240) -->
     <g transform="translate(39.2 148.035625)scale(0.1 -0.1)">
      <defs>
       <path id="DejaVuSans-38" d="M 2034 2216 
Q 1584 2216 1326 1975 
Q 1069 1734 1069 1313 
Q 1069 891 1326 650 
Q 1584 409 2034 409 
Q 2484 409 2743 651 
Q 3003 894 3003 1313 
Q 3003 1734 2745 1975 
Q 2488 2216 2034 2216 
z
M 1403 2484 
Q 997 2584 770 2862 
Q 544 3141 544 3541 
Q 544 4100 942 4425 
Q 1341 4750 2034 4750 
Q 2731 4750 3128 4425 
Q 3525 4100 3525 3541 
Q 3525 3141 3298 2862 
Q 3072 2584 2669 2484 
Q 3125 2378 3379 2068 
Q 3634 1759 3634 1313 
Q 3634 634 3220 271 
Q 2806 -91 2034 -91 
Q 1263 -91 848 271 
Q 434 634 434 1313 
Q 434 1759 690 2068 
Q 947 2378 1403 2484 
z
M 1172 3481 
Q 1172 3119 1398 2916 
Q 1625 2713 2034 2713 
Q 2441 2713 2670 2916 
Q 2900 3119 2900 3481 
Q 2900 3844 2670 4047 
Q 2441 4250 2034 4250 
Q 1625 4250 1398 4047 
Q 1172 3844 1172 3481 
z
" transform="scale(0.015625)"/>
       <path id="DejaVuSans-37" d="M 525 4666 
L 3525 4666 
L 3525 4397 
L 1831 0 
L 1172 0 
L 2766 4134 
L 525 4134 
L 525 4666 
z
" transform="scale(0.015625)"/>
      </defs>
      <use xlink:href="#DejaVuSans-31"/>
      <use xlink:href="#DejaVuSans-2e" x="63.623047"/>
      <use xlink:href="#DejaVuSans-36" x="95.410156"/>
      <use xlink:href="#DejaVuSans-20" x="159.033203"/>
      <use xlink:href="#DejaVuSans-2d" x="190.820312"/>
      <use xlink:href="#DejaVuSans-20" x="226.904297"/>
      <use xlink:href="#DejaVuSans-32" x="258.691406"/>
      <use xlink:href="#DejaVuSans-38" x="322.314453"/>
      <use xlink:href="#DejaVuSans-2e" x="385.9375"/>
      <use xlink:href="#DejaVuSans-37" x="417.724609"/>
      <use xlink:href="#DejaVuSans-25" x="481.347656"/>
      <use xlink:href="#DejaVuSans-20" x="576.367188"/>
      <use xlink:href="#DejaVuSans-28" x="608.154297"/>
      <use xlink:href="#DejaVuSans-32" x="647.167969"/>
      <use xlink:href="#DejaVuSans-34" x="710.791016"/>
      <use xlink:href="#DejaVuSans-30" x="774.414062"/>
      <use xlink:href="#DejaVuSans-29" x="838.037109"/>
     </g>
    </g>
    <g id="patch_16">
     <path d="M 11.2 162.71375 
L 31.2 162.71375 
L 31.2 155.71375 
L 11.2 155.71375 
z
" style="fill: #e377c2"/>
    </g>
    <g id="text_7">
     <!-- 1.7 - 25.1% (210) -->
     <g transform="translate(39.2 162.71375)scale(0.1 -0.1)">
      <use xlink:href="#DejaVuSans-31"/>
      <use xlink:href="#DejaVuSans-2e" x="63.623047"/>
      <use xlink:href="#DejaVuSans-37" x="95.410156"/>
      <use xlink:href="#DejaVuSans-20" x="159.033203"/>
      <use xlink:href="#DejaVuSans-2d" x="190.820312"/>
      <use xlink:href="#DejaVuSans-20" x="226.904297"/>
      <use xlink:href="#DejaVuSans-32" x="258.691406"/>
      <use xlink:href="#DejaVuSans-35" x="322.314453"/>
      <use xlink:href="#DejaVuSans-2e" x="385.9375"/>
      <use xlink:href="#DejaVuSans-31" x="417.724609"/>
      <use xlink:href="#DejaVuSans-25" x="481.347656"/>
      <use xlink:href="#DejaVuSans-20" x="576.367188"/>
      <use xlink:href="#DejaVuSans-28" x="608.154297"/>
      <use xlink:href="#DejaVuSans-32" x="647.167969"/>
      <use xlink:href="#DejaVuSans-31" x="710.791016"/>
      <use xlink:href="#DejaVuSans-30" x="774.414062"/>
      <use xlink:href="#DejaVuSans-29" x="838.037109"/>
     </g>
    </g>
   </g>
  </g>
 </g>
</svg>
