<svg height="600" width="1000" xmlns="http://www.w3.org/2000/svg">

<title>Your Diagram Title</title>

<!-- Generated with SankeyMATIC: 10/1/2022, 10:11:26 PM -->

<rect height="600" width="1000" fill="#ffffff"></rect>

<g transform="translate(12,18)">

<g id="sankey_flows">

<path id="flow5" d="M190.5 256.75096C300.25 256.75096 300.25 274.48317 410 274.48317" fill="none" stroke="#1f77b4" stroke-width="185.53665" opacity="0.45"><title>Flacoco → Executed: 625</title></path>

<path id="flow7" d="M420 274.48317C540.25 274.48317 540.25 295.78303 660.5 295.78303" fill="none" stroke="#7f7f7f" stroke-width="185.53665" opacity="0.45"><title>Executed → All Failing Tests Executed: 625</title></path>

<path id="flow9" d="M670.5 314.18826C818.25 314.18826 818.25 383.27986 966 383.27986" fill="none" stroke="#17becf" stroke-width="148.72618" opacity="0.45"><title>All Failing Tests Executed → Correct Reproduction: 501</title></path>

<path id="flow6" d="M190.5 398.50096C336.75 398.50096 336.75 485.85817 483 485.85817" fill="none" stroke="#1f77b4" stroke-width="97.96335" opacity="0.45"><title>Flacoco → Failed to Execute: 330</title></path>

<path id="flow0" d="M10 28.35C95.25 28.35 95.25 192.33264 180.5 192.33264" fill="none" stroke="#17becf" stroke-width="56.7" opacity="0.45"><title>default → Flacoco: 191</title></path>

<path id="flow1" d="M10 154.675C95.25 154.675 95.25 249.03264 180.5 249.03264" fill="none" stroke="#ff7f0e" stroke-width="56.7" opacity="0.45"><title>java7 → Flacoco: 191</title></path>

<path id="flow2" d="M10 281C95.25 281 95.25 305.73264 180.5 305.73264" fill="none" stroke="#2ca02c" stroke-width="56.7" opacity="0.45"><title>java8 → Flacoco: 191</title></path>

<path id="flow3" d="M10 407.325C95.25 407.325 95.25 362.43264 180.5 362.43264" fill="none" stroke="#d62728" stroke-width="56.7" opacity="0.45"><title>java11 → Flacoco: 191</title></path>

<path id="flow4" d="M10 533.65C95.25 533.65 95.25 419.13264 180.5 419.13264" fill="none" stroke="#9467bd" stroke-width="56.7" opacity="0.45"><title>java17 → Flacoco: 191</title></path>

<path id="flow8" d="M670.5 221.41994C818.25 221.41994 818.25 220.88654 966 220.88654" fill="none" stroke="#bcbd22" stroke-width="36.81047" opacity="0.45"><title>All Failing Tests Executed → Unexpected Failing Tests Reported: 124</title></path>

</g>

<g id="sankey_nodes">

<g class="node">

<rect id="r0" class="for_r0" x="0" y="0" height="56.7" width="10" fill="#17becf" fill-opacity="1.0"><title>default:
191</title></rect>

</g>

<g class="node">

<rect id="r1" class="for_r1" x="241.5" y="163.98264" height="283.5" width="10" fill="#1f77b4" fill-opacity="1.0" transform="translate(-61,0)"><title>Flacoco:
955</title></rect>

</g>

<g class="node">

<rect id="r2" class="for_r2" x="0" y="126.325" height="56.7" width="10" fill="#ff7f0e" fill-opacity="1.0"><title>java7:
191</title></rect>

</g>

<g class="node">

<rect id="r3" class="for_r3" x="0" y="252.65" height="56.7" width="10" fill="#2ca02c" fill-opacity="1.0"><title>java8:
191</title></rect>

</g>

<g class="node">

<rect id="r4" class="for_r4" x="0" y="378.975" height="56.7" width="10" fill="#d62728" fill-opacity="1.0"><title>java11:
191</title></rect>

</g>

<g class="node">

<rect id="r5" class="for_r5" x="0" y="505.3" height="56.7" width="10" fill="#9467bd" fill-opacity="1.0"><title>java17:
191</title></rect>

</g>

<g class="node">

<rect id="r6" class="for_r6" x="483" y="181.71485" height="185.53665" width="10" fill="#8c564b" fill-opacity="1.0" transform="translate(-73,0)"><title>Executed:
625</title></rect>

</g>

<g class="node">

<rect id="r7" class="for_r7" x="483" y="436.8765" height="97.96335" width="10" fill="#e377c2" fill-opacity="1.0"><title>Failed to Execute:
330</title></rect>

</g>

<g class="node">

<rect id="r8" class="for_r8" x="724.5" y="203.0147" height="185.53665" width="10" fill="#7f7f7f" fill-opacity="1.0" transform="translate(-64,0)"><title>All Failing Tests Executed:
625</title></rect>

</g>

<g class="node">

<rect id="r9" class="for_r9" x="966" y="202.4813" height="36.81047" width="10" fill="#bcbd22" fill-opacity="1.0"><title>Unexpected Failing Tests Reported:
124</title></rect>

</g>

<g class="node">

<rect id="r10" class="for_r10" x="966" y="308.91677" height="148.72618" width="10" fill="#17becf" fill-opacity="1.0"><title>Correct Reproduction:
501</title></rect>

</g>

</g>

<g id="sankey_labels" font-family="sans-serif" font-size="15px" font-weight="400" fill="#000000">

<rect id="label0_bg" class="for_r0" x="11.96466" y="14.68667" width="93.32333" height="28.34667" rx="3.75" fill="#fff" fill-opacity="0.55" stroke="none" stroke-width="0" stroke-opacity="0"></rect>

<text id="label0" class="for_r0" text-anchor="start" x="16.87633" y="28.35" dy="7.699999999999999">default: 191</text>

<rect id="label1_bg" class="for_r1" x="253.46468" y="292.06931" width="96.12334" height="28.34667" rx="3.75" fill="#fff" fill-opacity="0.55" stroke="none" stroke-width="0" stroke-opacity="0" transform="translate(-61,0)"></rect>

<text id="label1" class="for_r1" text-anchor="start" x="258.37633" y="305.73264" dy="7.699999999999999" transform="translate(-61,0)">Flacoco: 955</text>

<rect id="label2_bg" class="for_r2" x="11.96466" y="141.01167" width="80.39" height="28.34667" rx="3.75" fill="#fff" fill-opacity="0.55" stroke="none" stroke-width="0" stroke-opacity="0"></rect>

<text id="label2" class="for_r2" text-anchor="start" x="16.87633" y="154.675" dy="7.699999999999999">java7: 191</text>

<rect id="label3_bg" class="for_r3" x="11.96466" y="267.33668" width="80.39" height="28.34667" rx="3.75" fill="#fff" fill-opacity="0.55" stroke="none" stroke-width="0" stroke-opacity="0"></rect>

<text id="label3" class="for_r3" text-anchor="start" x="16.87633" y="281" dy="7.699999999999999">java8: 191</text>

<rect id="label4_bg" class="for_r4" x="11.96466" y="393.66169" width="88.97334" height="28.34667" rx="3.75" fill="#fff" fill-opacity="0.55" stroke="none" stroke-width="0" stroke-opacity="0"></rect>

<text id="label4" class="for_r4" text-anchor="start" x="16.87633" y="407.325" dy="7.699999999999999">java11: 191</text>

<rect id="label5_bg" class="for_r5" x="11.96466" y="519.9867" width="88.97334" height="28.34667" rx="3.75" fill="#fff" fill-opacity="0.55" stroke="none" stroke-width="0" stroke-opacity="0"></rect>

<text id="label5" class="for_r5" text-anchor="start" x="16.87633" y="533.65" dy="7.699999999999999">java17: 191</text>

<rect id="label6_bg" class="for_r6" x="373.52867" y="260.81986" width="107.50667" height="28.34667" rx="3.75" fill="#fff" fill-opacity="0.55" stroke="none" stroke-width="0" stroke-opacity="0" transform="translate(-73,0)"></rect>

<text id="label6" class="for_r6" text-anchor="end" x="476.12367" y="274.48317" dy="7.699999999999999" transform="translate(-73,0)">Executed: 625</text>

<rect id="label7_bg" class="for_r7" x="318.82866" y="472.19486" width="162.20666" height="28.34667" rx="3.75" fill="#fff" fill-opacity="0.55" stroke="none" stroke-width="0" stroke-opacity="0"></rect>

<text id="label7" class="for_r7" text-anchor="end" x="476.12367" y="485.85817" dy="7.699999999999999">Failed to Execute: 330</text>

<rect id="label8_bg" class="for_r8" x="504.17867" y="282.1197" width="218.35667" height="28.34667" rx="3.75" fill="#fff" fill-opacity="0.55" stroke="none" stroke-width="0" stroke-opacity="0" transform="translate(-64,0)"></rect>

<text id="label8" class="for_r8" text-anchor="end" x="717.62367" y="295.78303" dy="7.699999999999999" transform="translate(-64,0)">All Failing Tests Executed: 625</text>

<rect id="label9_bg" class="for_r9" x="677.22865" y="207.2232" width="286.80667" height="28.34667" rx="3.75" fill="#fff" fill-opacity="0.55" stroke="none" stroke-width="0" stroke-opacity="0"></rect>

<text id="label9" class="for_r9" text-anchor="end" x="959.12367" y="220.88654" dy="7.699999999999999">Unexpected Failing Tests Reported: 124</text>

<rect id="label10_bg" class="for_r10" x="769.5453" y="369.61653" width="194.49001" height="28.34667" rx="3.75" fill="#fff" fill-opacity="0.55" stroke="none" stroke-width="0" stroke-opacity="0"></rect>

<text id="label10" class="for_r10" text-anchor="end" x="959.12367" y="383.27986" dy="7.699999999999999">Correct Reproduction: 501</text>

</g>

</g></svg>
