<svg height="600" width="1000" xmlns="http://www.w3.org/2000/svg">

<title>Your Diagram Title</title>

<!-- Generated with SankeyMATIC: 10/1/2022, 10:06:50 PM -->

<rect height="600" width="1000" fill="#ffffff"></rect>

<g transform="translate(12,18)">

<g id="sankey_flows">

<path id="flow5" d="M184.5 282.38278C297.75 282.38278 297.75 300.48511 411 300.48511" fill="none" stroke="#1f77b4" stroke-width="238.67435" opacity="0.45"><title>GZoltar → Executed: 804</title></path>

<path id="flow7" d="M421 244.97255C535.25 244.97255 535.25 261.44307 649.5 261.44307" fill="none" stroke="#7f7f7f" stroke-width="127.64921" opacity="0.45"><title>Executed → All Failing Tests Executed: 430</title></path>

<path id="flow8" d="M421 364.30972C574.25 364.30972 574.25 450.40525 727.5 450.40525" fill="none" stroke="#bcbd22" stroke-width="111.02513" opacity="0.45"><title>Executed → Not All Failing Tests Executed: 374</title></path>

<path id="flow10" d="M659.5 285.48862C812.75 285.48862 812.75 354.6341 966 354.6341" fill="none" stroke="#1f77b4" stroke-width="79.55812" opacity="0.45"><title>All Failing Tests Executed → Correct Reproduction: 268</title></path>

<path id="flow0" d="M10 28.35C92.25 28.35 92.25 191.39561 174.5 191.39561" fill="none" stroke="#17becf" stroke-width="56.7" opacity="0.45"><title>default → GZoltar: 191</title></path>

<path id="flow1" d="M10 154.675C92.25 154.675 92.25 248.09561 174.5 248.09561" fill="none" stroke="#ff7f0e" stroke-width="56.7" opacity="0.45"><title>java7 → GZoltar: 191</title></path>

<path id="flow2" d="M10 281C92.25 281 92.25 304.79561 174.5 304.79561" fill="none" stroke="#2ca02c" stroke-width="56.7" opacity="0.45"><title>java8 → GZoltar: 191</title></path>

<path id="flow3" d="M10 407.325C92.25 407.325 92.25 361.49561 174.5 361.49561" fill="none" stroke="#d62728" stroke-width="56.7" opacity="0.45"><title>java11 → GZoltar: 191</title></path>

<path id="flow4" d="M10 533.65C92.25 533.65 92.25 418.19561 174.5 418.19561" fill="none" stroke="#9467bd" stroke-width="56.7" opacity="0.45"><title>java17 → GZoltar: 191</title></path>

<path id="flow9" d="M659.5 221.66402C812.75 221.66402 812.75 221.1845 966 221.1845" fill="none" stroke="#17becf" stroke-width="48.0911" opacity="0.45"><title>All Failing Tests Executed → Unexpected Failing Tests Reported: 162</title></path>

<path id="flow6" d="M184.5 424.13278C314.75 424.13278 314.75 511.86011 445 511.86011" fill="none" stroke="#1f77b4" stroke-width="44.82565" opacity="0.45"><title>GZoltar → Failed to Execute: 151</title></path>

</g>

<g id="sankey_nodes">

<g class="node">

<rect id="r0" class="for_r0" x="0" y="0" height="56.7" width="10" fill="#17becf" fill-opacity="1.0"><title>default:
191</title></rect>

</g>

<g class="node">

<rect id="r1" class="for_r1" x="241.5" y="163.04561" height="283.5" width="10" fill="#1f77b4" fill-opacity="1.0" transform="translate(-67,0)"><title>GZoltar:
955</title></rect>

</g>

<g class="node">

<rect id="r2" class="for_r2" x="0" y="126.325" height="56.7" width="10" fill="#ff7f0e" fill-opacity="1.0"><title>java7:
191</title></rect>

</g>

<g class="node">

<rect id="r3" class="for_r3" x="0" y="252.65" height="56.7" width="10" fill="#2ca02c" fill-opacity="1.0"><title>java8:
191</title></rect>

</g>

<g class="node">

<rect id="r4" class="for_r4" x="0" y="378.975" height="56.7" width="10" fill="#d62728" fill-opacity="1.0"><title>java11:
191</title></rect>

</g>

<g class="node">

<rect id="r5" class="for_r5" x="0" y="505.3" height="56.7" width="10" fill="#9467bd" fill-opacity="1.0"><title>java17:
191</title></rect>

</g>

<g class="node">

<rect id="r6" class="for_r6" x="483" y="181.14794" height="238.67435" width="10" fill="#8c564b" fill-opacity="1.0" transform="translate(-72,0)"><title>Executed:
804</title></rect>

</g>

<g class="node">

<rect id="r7" class="for_r7" x="483" y="489.44729" height="44.82565" width="10" fill="#e377c2" fill-opacity="1.0" transform="translate(-38,0)"><title>Failed to Execute:
151</title></rect>

</g>

<g class="node">

<rect id="r8" class="for_r8" x="724.5" y="197.61847" height="127.64921" width="10" fill="#7f7f7f" fill-opacity="1.0" transform="translate(-75,0)"><title>All Failing Tests Executed:
430</title></rect>

</g>

<g class="node">

<rect id="r9" class="for_r9" x="724.5" y="394.89268" height="111.02513" width="10" fill="#bcbd22" fill-opacity="1.0" transform="translate(3,0)"><title>Not All Failing Tests Executed:
374</title></rect>

</g>

<g class="node">

<rect id="r10" class="for_r10" x="966" y="197.13895" height="48.0911" width="10" fill="#17becf" fill-opacity="1.0"><title>Unexpected Failing Tests Reported:
162</title></rect>

</g>

<g class="node">

<rect id="r11" class="for_r11" x="966" y="314.85505" height="79.55812" width="10" fill="#1f77b4" fill-opacity="1.0"><title>Correct Reproduction:
268</title></rect>

</g>

</g>

<g id="sankey_labels" font-family="sans-serif" font-size="15px" font-weight="400" fill="#000000">

<rect id="label0_bg" class="for_r0" x="11.96466" y="14.68667" width="93.32333" height="28.34667" rx="3.75" fill="#fff" fill-opacity="0.55" stroke="none" stroke-width="0" stroke-opacity="0"></rect>

<text id="label0" class="for_r0" text-anchor="start" x="16.87633" y="28.35" dy="7.699999999999999">default: 191</text>

<rect id="label1_bg" class="for_r1" x="253.46468" y="291.1323" width="95.97334" height="28.34667" rx="3.75" fill="#fff" fill-opacity="0.55" stroke="none" stroke-width="0" stroke-opacity="0" transform="translate(-67,0)"></rect>

<text id="label1" class="for_r1" text-anchor="start" x="258.37633" y="304.79561" dy="7.699999999999999" transform="translate(-67,0)">GZoltar: 955</text>

<rect id="label2_bg" class="for_r2" x="11.96466" y="141.01167" width="80.39" height="28.34667" rx="3.75" fill="#fff" fill-opacity="0.55" stroke="none" stroke-width="0" stroke-opacity="0"></rect>

<text id="label2" class="for_r2" text-anchor="start" x="16.87633" y="154.675" dy="7.699999999999999">java7: 191</text>

<rect id="label3_bg" class="for_r3" x="11.96466" y="267.33668" width="80.39" height="28.34667" rx="3.75" fill="#fff" fill-opacity="0.55" stroke="none" stroke-width="0" stroke-opacity="0"></rect>

<text id="label3" class="for_r3" text-anchor="start" x="16.87633" y="281" dy="7.699999999999999">java8: 191</text>

<rect id="label4_bg" class="for_r4" x="11.96466" y="393.66169" width="88.97334" height="28.34667" rx="3.75" fill="#fff" fill-opacity="0.55" stroke="none" stroke-width="0" stroke-opacity="0"></rect>

<text id="label4" class="for_r4" text-anchor="start" x="16.87633" y="407.325" dy="7.699999999999999">java11: 191</text>

<rect id="label5_bg" class="for_r5" x="11.96466" y="519.9867" width="88.97334" height="28.34667" rx="3.75" fill="#fff" fill-opacity="0.55" stroke="none" stroke-width="0" stroke-opacity="0"></rect>

<text id="label5" class="for_r5" text-anchor="start" x="16.87633" y="533.65" dy="7.699999999999999">java17: 191</text>

<rect id="label6_bg" class="for_r6" x="373.52867" y="286.82179" width="107.50667" height="28.34667" rx="3.75" fill="#fff" fill-opacity="0.55" stroke="none" stroke-width="0" stroke-opacity="0" transform="translate(-72,0)"></rect>

<text id="label6" class="for_r6" text-anchor="end" x="476.12367" y="300.48511" dy="7.699999999999999" transform="translate(-72,0)">Executed: 804</text>

<rect id="label7_bg" class="for_r7" x="318.82866" y="498.19679" width="162.20666" height="28.34667" rx="3.75" fill="#fff" fill-opacity="0.55" stroke="none" stroke-width="0" stroke-opacity="0" transform="translate(-38,0)"></rect>

<text id="label7" class="for_r7" text-anchor="end" x="476.12367" y="511.86011" dy="7.699999999999999" transform="translate(-38,0)">Failed to Execute: 151</text>

<rect id="label8_bg" class="for_r8" x="504.17867" y="247.77975" width="218.35667" height="28.34667" rx="3.75" fill="#fff" fill-opacity="0.55" stroke="none" stroke-width="0" stroke-opacity="0" transform="translate(-75,0)"></rect>

<text id="label8" class="for_r8" text-anchor="end" x="717.62367" y="261.44307" dy="7.699999999999999" transform="translate(-75,0)">All Failing Tests Executed: 430</text>

<rect id="label9_bg" class="for_r9" x="474.37865" y="436.74192" width="248.15666" height="28.34667" rx="3.75" fill="#fff" fill-opacity="0.55" stroke="none" stroke-width="0" stroke-opacity="0" transform="translate(3,0)"></rect>

<text id="label9" class="for_r9" text-anchor="end" x="717.62367" y="450.40525" dy="7.699999999999999" transform="translate(3,0)">Not All Failing Tests Executed: 374</text>

<rect id="label10_bg" class="for_r10" x="677.22865" y="207.52116" width="286.80667" height="28.34667" rx="3.75" fill="#fff" fill-opacity="0.55" stroke="none" stroke-width="0" stroke-opacity="0"></rect>

<text id="label10" class="for_r10" text-anchor="end" x="959.12367" y="221.1845" dy="7.699999999999999">Unexpected Failing Tests Reported: 162</text>

<rect id="label11_bg" class="for_r11" x="769.5453" y="340.97077" width="194.49001" height="28.34667" rx="3.75" fill="#fff" fill-opacity="0.55" stroke="none" stroke-width="0" stroke-opacity="0"></rect>

<text id="label11" class="for_r11" text-anchor="end" x="959.12367" y="354.6341" dy="7.699999999999999">Correct Reproduction: 268</text>

</g>

</g></svg>
