<?xml version="1.0" encoding="utf-8" standalone="no"?>
<!DOCTYPE svg PUBLIC "-//W3C//DTD SVG 1.1//EN"
  "http://www.w3.org/Graphics/SVG/1.1/DTD/svg11.dtd">
<svg xmlns:xlink="http://www.w3.org/1999/xlink" width="390.982812pt" height="263.63625pt" viewBox="0 0 390.982812 263.63625" xmlns="http://www.w3.org/2000/svg" version="1.1">
 <metadata>
  <rdf:RDF xmlns:dc="http://purl.org/dc/elements/1.1/" xmlns:cc="http://creativecommons.org/ns#" xmlns:rdf="http://www.w3.org/1999/02/22-rdf-syntax-ns#">
   <cc:Work>
    <dc:type rdf:resource="http://purl.org/dc/dcmitype/StillImage"/>
    <dc:date>2022-10-10T10:58:31.666987</dc:date>
    <dc:format>image/svg+xml</dc:format>
    <dc:creator>
     <cc:Agent>
      <dc:title>Matplotlib v3.5.2, https://matplotlib.org/</dc:title>
     </cc:Agent>
    </dc:creator>
   </cc:Work>
  </rdf:RDF>
 </metadata>
 <defs>
  <style type="text/css">*{stroke-linejoin: round; stroke-linecap: butt}</style>
 </defs>
 <g id="figure_1">
  <g id="patch_1">
   <path d="M 0 263.63625 
L 390.982812 263.63625 
L 390.982812 0 
L 0 0 
L 0 263.63625 
z
" style="fill: none"/>
  </g>
  <g id="axes_1">
   <g id="patch_2">
    <path d="M 48.982813 239.758125 
L 383.782813 239.758125 
L 383.782813 22.318125 
L 48.982813 22.318125 
z
" style="fill: #ffffff"/>
   </g>
   <g id="PolyCollection_1">
    <defs>
     <path id="m4e620c364f" d="M 133.367875 -33.761761 
L 131.99775 -33.761761 
L 131.811412 -35.758456 
L 131.58709 -37.75515 
L 131.320742 -39.751844 
L 131.008872 -41.748538 
L 130.648821 -43.745232 
L 130.239054 -45.741927 
L 129.779444 -47.738621 
L 129.271511 -49.735315 
L 128.718605 -51.732009 
L 128.126002 -53.728704 
L 127.500896 -55.725398 
L 126.852278 -57.722092 
L 126.19069 -59.718786 
L 125.527862 -61.71548 
L 124.876253 -63.712175 
L 124.248515 -65.708869 
L 123.656921 -67.705563 
L 123.112784 -69.702257 
L 122.625933 -71.698951 
L 122.204252 -73.695646 
L 121.853348 -75.69234 
L 121.576354 -77.689034 
L 121.373883 -79.685728 
L 121.24414 -81.682423 
L 121.18317 -83.679117 
L 121.185231 -85.675811 
L 121.243241 -87.672505 
L 121.34929 -89.669199 
L 121.495142 -91.665894 
L 121.672727 -93.662588 
L 121.874555 -95.659282 
L 122.094054 -97.655976 
L 122.325799 -99.65267 
L 122.565627 -101.649365 
L 122.810639 -103.646059 
L 123.059108 -105.642753 
L 123.310285 -107.639447 
L 123.564148 -109.636142 
L 123.821105 -111.632836 
L 124.08168 -113.62953 
L 124.346204 -115.626224 
L 124.614544 -117.622918 
L 124.885877 -119.619613 
L 125.158544 -121.616307 
L 125.429975 -123.613001 
L 125.696709 -125.609695 
L 125.954495 -127.606389 
L 126.198476 -129.603084 
L 126.423436 -131.599778 
L 126.624094 -133.596472 
L 126.795428 -135.593166 
L 126.932987 -137.589861 
L 127.033198 -139.586555 
L 127.093612 -141.583249 
L 127.113092 -143.579943 
L 127.091929 -145.576637 
L 127.031866 -147.573332 
L 126.936048 -149.570026 
L 126.808896 -151.56672 
L 126.65591 -153.563414 
L 126.483444 -155.560108 
L 126.298434 -157.556803 
L 126.108137 -159.553497 
L 125.919869 -161.550191 
L 125.740773 -163.546885 
L 125.577618 -165.54358 
L 125.436637 -167.540274 
L 125.323406 -169.536968 
L 125.242756 -171.533662 
L 125.198712 -173.530356 
L 125.194453 -175.527051 
L 125.232283 -177.523745 
L 125.313613 -179.520439 
L 125.438938 -181.517133 
L 125.60783 -183.513827 
L 125.818927 -185.510522 
L 126.069941 -187.507216 
L 126.357686 -189.50391 
L 126.678131 -191.500604 
L 127.026483 -193.497299 
L 127.397311 -195.493993 
L 127.784696 -197.490687 
L 128.182419 -199.487381 
L 128.584158 -201.484075 
L 128.983706 -203.48077 
L 129.375178 -205.477464 
L 129.753207 -207.474158 
L 130.113108 -209.470852 
L 130.451001 -211.467546 
L 130.763899 -213.464241 
L 131.049736 -215.460935 
L 131.30736 -217.457629 
L 131.536473 -219.454323 
L 131.737544 -221.451018 
L 131.911694 -223.447712 
L 132.06056 -225.444406 
L 132.186162 -227.4411 
L 132.290768 -229.437794 
L 132.376765 -231.434489 
L 132.98886 -231.434489 
L 132.98886 -231.434489 
L 133.074857 -229.437794 
L 133.179463 -227.4411 
L 133.305065 -225.444406 
L 133.453931 -223.447712 
L 133.628081 -221.451018 
L 133.829152 -219.454323 
L 134.058265 -217.457629 
L 134.315889 -215.460935 
L 134.601726 -213.464241 
L 134.914624 -211.467546 
L 135.252517 -209.470852 
L 135.612418 -207.474158 
L 135.990447 -205.477464 
L 136.381919 -203.48077 
L 136.781467 -201.484075 
L 137.183206 -199.487381 
L 137.580929 -197.490687 
L 137.968314 -195.493993 
L 138.339142 -193.497299 
L 138.687494 -191.500604 
L 139.007939 -189.50391 
L 139.295684 -187.507216 
L 139.546698 -185.510522 
L 139.757795 -183.513827 
L 139.926687 -181.517133 
L 140.052012 -179.520439 
L 140.133342 -177.523745 
L 140.171172 -175.527051 
L 140.166913 -173.530356 
L 140.122869 -171.533662 
L 140.042219 -169.536968 
L 139.928988 -167.540274 
L 139.788007 -165.54358 
L 139.624852 -163.546885 
L 139.445756 -161.550191 
L 139.257488 -159.553497 
L 139.067191 -157.556803 
L 138.882181 -155.560108 
L 138.709715 -153.563414 
L 138.556729 -151.56672 
L 138.429577 -149.570026 
L 138.333759 -147.573332 
L 138.273696 -145.576637 
L 138.252533 -143.579943 
L 138.272013 -141.583249 
L 138.332427 -139.586555 
L 138.432638 -137.589861 
L 138.570197 -135.593166 
L 138.741531 -133.596472 
L 138.942189 -131.599778 
L 139.167149 -129.603084 
L 139.41113 -127.606389 
L 139.668916 -125.609695 
L 139.93565 -123.613001 
L 140.207081 -121.616307 
L 140.479748 -119.619613 
L 140.751081 -117.622918 
L 141.019421 -115.626224 
L 141.283945 -113.62953 
L 141.54452 -111.632836 
L 141.801477 -109.636142 
L 142.05534 -107.639447 
L 142.306517 -105.642753 
L 142.554986 -103.646059 
L 142.799998 -101.649365 
L 143.039826 -99.65267 
L 143.271571 -97.655976 
L 143.49107 -95.659282 
L 143.692898 -93.662588 
L 143.870483 -91.665894 
L 144.016335 -89.669199 
L 144.122384 -87.672505 
L 144.180394 -85.675811 
L 144.182455 -83.679117 
L 144.121485 -81.682423 
L 143.991742 -79.685728 
L 143.789271 -77.689034 
L 143.512277 -75.69234 
L 143.161373 -73.695646 
L 142.739692 -71.698951 
L 142.252841 -69.702257 
L 141.708704 -67.705563 
L 141.11711 -65.708869 
L 140.489372 -63.712175 
L 139.837763 -61.71548 
L 139.174935 -59.718786 
L 138.513347 -57.722092 
L 137.864729 -55.725398 
L 137.239623 -53.728704 
L 136.64702 -51.732009 
L 136.094114 -49.735315 
L 135.586181 -47.738621 
L 135.126571 -45.741927 
L 134.716804 -43.745232 
L 134.356753 -41.748538 
L 134.044883 -39.751844 
L 133.778535 -37.75515 
L 133.554213 -35.758456 
L 133.367875 -33.761761 
z
" style="stroke: #3f3f3f; stroke-width: 1.5"/>
    </defs>
    <g clip-path="url(#pd1410d23bd)">
     <use xlink:href="#m4e620c364f" x="0" y="263.63625" style="fill: #3274a1; stroke: #3f3f3f; stroke-width: 1.5"/>
    </g>
   </g>
   <g id="PolyCollection_2">
    <defs>
     <path id="mb8a305996d" d="M 301.338828 -61.222237 
L 298.826797 -61.222237 
L 298.280926 -61.752868 
L 297.552347 -62.2835 
L 296.60371 -62.814131 
L 295.39915 -63.344763 
L 293.908064 -63.875394 
L 292.109505 -64.406025 
L 289.996747 -64.936657 
L 287.581451 -65.467288 
L 284.896739 -65.99792 
L 281.998503 -66.528551 
L 278.964386 -67.059182 
L 275.890117 -67.589814 
L 272.883221 -68.120445 
L 270.054512 -68.651076 
L 267.508142 -69.181708 
L 265.331279 -69.712339 
L 263.584628 -70.242971 
L 262.294999 -70.773602 
L 261.450909 -71.304233 
L 261.001894 -71.834865 
L 260.861755 -72.365496 
L 260.915488 -72.896128 
L 261.029265 -73.426759 
L 261.062454 -73.95739 
L 260.880498 -74.488022 
L 260.367371 -75.018653 
L 259.436434 -75.549285 
L 258.03866 -76.079916 
L 256.167504 -76.610547 
L 253.860012 -77.141179 
L 251.194146 -77.67181 
L 248.282647 -78.202442 
L 245.264091 -78.733073 
L 242.292025 -79.263704 
L 239.523249 -79.794336 
L 237.106295 -80.324967 
L 235.171136 -80.855599 
L 233.820919 -81.38623 
L 233.126323 -81.916861 
L 233.122813 -82.447493 
L 233.810796 -82.978124 
L 235.158416 -83.508756 
L 237.106508 -84.039387 
L 239.575086 -84.570018 
L 242.47065 -85.10065 
L 245.693593 -85.631281 
L 249.145035 -86.161913 
L 252.732526 -86.692544 
L 256.37423 -87.223175 
L 260.001396 -87.753807 
L 263.55912 -88.284438 
L 267.005624 -88.815069 
L 270.3104 -89.345701 
L 273.4517 -89.876332 
L 276.41385 -90.406964 
L 279.184848 -90.937595 
L 281.754578 -91.468226 
L 284.113829 -91.998858 
L 286.254139 -92.529489 
L 288.168334 -93.060121 
L 289.851494 -93.590752 
L 291.302053 -94.121383 
L 292.522711 -94.652015 
L 293.520947 -95.182646 
L 294.308983 -95.713278 
L 294.903235 -96.243909 
L 295.323357 -96.77454 
L 295.591086 -97.305172 
L 295.729101 -97.835803 
L 295.7601 -98.366435 
L 295.706186 -98.897066 
L 295.588584 -99.427697 
L 295.427609 -99.958329 
L 295.242723 -100.48896 
L 295.052565 -101.019592 
L 294.874791 -101.550223 
L 294.725704 -102.080854 
L 294.619676 -102.611486 
L 294.568476 -103.142117 
L 294.580623 -103.672749 
L 294.660909 -104.20338 
L 294.810189 -104.734011 
L 295.025481 -105.264643 
L 295.300369 -105.795274 
L 295.625647 -106.325905 
L 295.990108 -106.856537 
L 296.381393 -107.387168 
L 296.78681 -107.9178 
L 297.194078 -108.448431 
L 297.59195 -108.979062 
L 297.970701 -109.509694 
L 298.322472 -110.040325 
L 298.641476 -110.570957 
L 298.924052 -111.101588 
L 299.168592 -111.632219 
L 299.375336 -112.162851 
L 299.546079 -112.693482 
L 299.683799 -113.224114 
L 299.792271 -113.754745 
L 300.373354 -113.754745 
L 300.373354 -113.754745 
L 300.481826 -113.224114 
L 300.619546 -112.693482 
L 300.790289 -112.162851 
L 300.997033 -111.632219 
L 301.241573 -111.101588 
L 301.524149 -110.570957 
L 301.843153 -110.040325 
L 302.194924 -109.509694 
L 302.573675 -108.979062 
L 302.971547 -108.448431 
L 303.378815 -107.9178 
L 303.784232 -107.387168 
L 304.175517 -106.856537 
L 304.539978 -106.325905 
L 304.865256 -105.795274 
L 305.140144 -105.264643 
L 305.355436 -104.734011 
L 305.504716 -104.20338 
L 305.585002 -103.672749 
L 305.597149 -103.142117 
L 305.545949 -102.611486 
L 305.439921 -102.080854 
L 305.290834 -101.550223 
L 305.11306 -101.019592 
L 304.922902 -100.48896 
L 304.738016 -99.958329 
L 304.577041 -99.427697 
L 304.459439 -98.897066 
L 304.405525 -98.366435 
L 304.436524 -97.835803 
L 304.574539 -97.305172 
L 304.842268 -96.77454 
L 305.26239 -96.243909 
L 305.856642 -95.713278 
L 306.644678 -95.182646 
L 307.642914 -94.652015 
L 308.863572 -94.121383 
L 310.314131 -93.590752 
L 311.997291 -93.060121 
L 313.911486 -92.529489 
L 316.051796 -91.998858 
L 318.411047 -91.468226 
L 320.980777 -90.937595 
L 323.751775 -90.406964 
L 326.713925 -89.876332 
L 329.855225 -89.345701 
L 333.160001 -88.815069 
L 336.606505 -88.284438 
L 340.164229 -87.753807 
L 343.791395 -87.223175 
L 347.433099 -86.692544 
L 351.02059 -86.161913 
L 354.472032 -85.631281 
L 357.694975 -85.10065 
L 360.590539 -84.570018 
L 363.059117 -84.039387 
L 365.007209 -83.508756 
L 366.354829 -82.978124 
L 367.042812 -82.447493 
L 367.039302 -81.916861 
L 366.344706 -81.38623 
L 364.994489 -80.855599 
L 363.05933 -80.324967 
L 360.642376 -79.794336 
L 357.8736 -79.263704 
L 354.901534 -78.733073 
L 351.882978 -78.202442 
L 348.971479 -77.67181 
L 346.305613 -77.141179 
L 343.998121 -76.610547 
L 342.126965 -76.079916 
L 340.729191 -75.549285 
L 339.798254 -75.018653 
L 339.285127 -74.488022 
L 339.103171 -73.95739 
L 339.13636 -73.426759 
L 339.250137 -72.896128 
L 339.30387 -72.365496 
L 339.163731 -71.834865 
L 338.714716 -71.304233 
L 337.870626 -70.773602 
L 336.580997 -70.242971 
L 334.834346 -69.712339 
L 332.657483 -69.181708 
L 330.111113 -68.651076 
L 327.282404 -68.120445 
L 324.275508 -67.589814 
L 321.201239 -67.059182 
L 318.167122 -66.528551 
L 315.268886 -65.99792 
L 312.584174 -65.467288 
L 310.168878 -64.936657 
L 308.05612 -64.406025 
L 306.257561 -63.875394 
L 304.766475 -63.344763 
L 303.561915 -62.814131 
L 302.613278 -62.2835 
L 301.884699 -61.752868 
L 301.338828 -61.222237 
z
" style="stroke: #3f3f3f; stroke-width: 1.5"/>
    </defs>
    <g clip-path="url(#pd1410d23bd)">
     <use xlink:href="#mb8a305996d" x="0" y="263.63625" style="fill: #e1812c; stroke: #3f3f3f; stroke-width: 1.5"/>
    </g>
   </g>
   <g id="matplotlib.axis_1">
    <g id="xtick_1">
     <g id="line2d_1">
      <defs>
       <path id="m9bdaa943e8" d="M 0 0 
L 0 3.5 
" style="stroke: #000000; stroke-width: 0.8"/>
      </defs>
      <g>
       <use xlink:href="#m9bdaa943e8" x="132.682813" y="239.758125" style="stroke: #000000; stroke-width: 0.8"/>
      </g>
     </g>
     <g id="text_1">
      <!-- GZoltar -->
      <g transform="translate(113.855469 254.356563)scale(0.1 -0.1)">
       <defs>
        <path id="DejaVuSans-47" d="M 3809 666 
L 3809 1919 
L 2778 1919 
L 2778 2438 
L 4434 2438 
L 4434 434 
Q 4069 175 3628 42 
Q 3188 -91 2688 -91 
Q 1594 -91 976 548 
Q 359 1188 359 2328 
Q 359 3472 976 4111 
Q 1594 4750 2688 4750 
Q 3144 4750 3555 4637 
Q 3966 4525 4313 4306 
L 4313 3634 
Q 3963 3931 3569 4081 
Q 3175 4231 2741 4231 
Q 1884 4231 1454 3753 
Q 1025 3275 1025 2328 
Q 1025 1384 1454 906 
Q 1884 428 2741 428 
Q 3075 428 3337 486 
Q 3600 544 3809 666 
z
" transform="scale(0.015625)"/>
        <path id="DejaVuSans-5a" d="M 359 4666 
L 4025 4666 
L 4025 4184 
L 1075 531 
L 4097 531 
L 4097 0 
L 288 0 
L 288 481 
L 3238 4134 
L 359 4134 
L 359 4666 
z
" transform="scale(0.015625)"/>
        <path id="DejaVuSans-6f" d="M 1959 3097 
Q 1497 3097 1228 2736 
Q 959 2375 959 1747 
Q 959 1119 1226 758 
Q 1494 397 1959 397 
Q 2419 397 2687 759 
Q 2956 1122 2956 1747 
Q 2956 2369 2687 2733 
Q 2419 3097 1959 3097 
z
M 1959 3584 
Q 2709 3584 3137 3096 
Q 3566 2609 3566 1747 
Q 3566 888 3137 398 
Q 2709 -91 1959 -91 
Q 1206 -91 779 398 
Q 353 888 353 1747 
Q 353 2609 779 3096 
Q 1206 3584 1959 3584 
z
" transform="scale(0.015625)"/>
        <path id="DejaVuSans-6c" d="M 603 4863 
L 1178 4863 
L 1178 0 
L 603 0 
L 603 4863 
z
" transform="scale(0.015625)"/>
        <path id="DejaVuSans-74" d="M 1172 4494 
L 1172 3500 
L 2356 3500 
L 2356 3053 
L 1172 3053 
L 1172 1153 
Q 1172 725 1289 603 
Q 1406 481 1766 481 
L 2356 481 
L 2356 0 
L 1766 0 
Q 1100 0 847 248 
Q 594 497 594 1153 
L 594 3053 
L 172 3053 
L 172 3500 
L 594 3500 
L 594 4494 
L 1172 4494 
z
" transform="scale(0.015625)"/>
        <path id="DejaVuSans-61" d="M 2194 1759 
Q 1497 1759 1228 1600 
Q 959 1441 959 1056 
Q 959 750 1161 570 
Q 1363 391 1709 391 
Q 2188 391 2477 730 
Q 2766 1069 2766 1631 
L 2766 1759 
L 2194 1759 
z
M 3341 1997 
L 3341 0 
L 2766 0 
L 2766 531 
Q 2569 213 2275 61 
Q 1981 -91 1556 -91 
Q 1019 -91 701 211 
Q 384 513 384 1019 
Q 384 1609 779 1909 
Q 1175 2209 1959 2209 
L 2766 2209 
L 2766 2266 
Q 2766 2663 2505 2880 
Q 2244 3097 1772 3097 
Q 1472 3097 1187 3025 
Q 903 2953 641 2809 
L 641 3341 
Q 956 3463 1253 3523 
Q 1550 3584 1831 3584 
Q 2591 3584 2966 3190 
Q 3341 2797 3341 1997 
z
" transform="scale(0.015625)"/>
        <path id="DejaVuSans-72" d="M 2631 2963 
Q 2534 3019 2420 3045 
Q 2306 3072 2169 3072 
Q 1681 3072 1420 2755 
Q 1159 2438 1159 1844 
L 1159 0 
L 581 0 
L 581 3500 
L 1159 3500 
L 1159 2956 
Q 1341 3275 1631 3429 
Q 1922 3584 2338 3584 
Q 2397 3584 2469 3576 
Q 2541 3569 2628 3553 
L 2631 2963 
z
" transform="scale(0.015625)"/>
       </defs>
       <use xlink:href="#DejaVuSans-47"/>
       <use xlink:href="#DejaVuSans-5a" x="77.490234"/>
       <use xlink:href="#DejaVuSans-6f" x="145.996094"/>
       <use xlink:href="#DejaVuSans-6c" x="207.177734"/>
       <use xlink:href="#DejaVuSans-74" x="234.960938"/>
       <use xlink:href="#DejaVuSans-61" x="274.169922"/>
       <use xlink:href="#DejaVuSans-72" x="335.449219"/>
      </g>
     </g>
    </g>
    <g id="xtick_2">
     <g id="line2d_2">
      <g>
       <use xlink:href="#m9bdaa943e8" x="300.082813" y="239.758125" style="stroke: #000000; stroke-width: 0.8"/>
      </g>
     </g>
     <g id="text_2">
      <!-- Flacoco -->
      <g transform="translate(281.136719 254.356563)scale(0.1 -0.1)">
       <defs>
        <path id="DejaVuSans-46" d="M 628 4666 
L 3309 4666 
L 3309 4134 
L 1259 4134 
L 1259 2759 
L 3109 2759 
L 3109 2228 
L 1259 2228 
L 1259 0 
L 628 0 
L 628 4666 
z
" transform="scale(0.015625)"/>
        <path id="DejaVuSans-63" d="M 3122 3366 
L 3122 2828 
Q 2878 2963 2633 3030 
Q 2388 3097 2138 3097 
Q 1578 3097 1268 2742 
Q 959 2388 959 1747 
Q 959 1106 1268 751 
Q 1578 397 2138 397 
Q 2388 397 2633 464 
Q 2878 531 3122 666 
L 3122 134 
Q 2881 22 2623 -34 
Q 2366 -91 2075 -91 
Q 1284 -91 818 406 
Q 353 903 353 1747 
Q 353 2603 823 3093 
Q 1294 3584 2113 3584 
Q 2378 3584 2631 3529 
Q 2884 3475 3122 3366 
z
" transform="scale(0.015625)"/>
       </defs>
       <use xlink:href="#DejaVuSans-46"/>
       <use xlink:href="#DejaVuSans-6c" x="57.519531"/>
       <use xlink:href="#DejaVuSans-61" x="85.302734"/>
       <use xlink:href="#DejaVuSans-63" x="146.582031"/>
       <use xlink:href="#DejaVuSans-6f" x="201.5625"/>
       <use xlink:href="#DejaVuSans-63" x="262.744141"/>
       <use xlink:href="#DejaVuSans-6f" x="317.724609"/>
      </g>
     </g>
    </g>
   </g>
   <g id="matplotlib.axis_2">
    <g id="ytick_1">
     <g id="line2d_3">
      <defs>
       <path id="m64b980ec3b" d="M 0 0 
L -3.5 0 
" style="stroke: #000000; stroke-width: 0.8"/>
      </defs>
      <g>
       <use xlink:href="#m64b980ec3b" x="48.982813" y="231.169279" style="stroke: #000000; stroke-width: 0.8"/>
      </g>
     </g>
     <g id="text_3">
      <!-- −20 -->
      <g transform="translate(20.878125 234.968497)scale(0.1 -0.1)">
       <defs>
        <path id="DejaVuSans-2212" d="M 678 2272 
L 4684 2272 
L 4684 1741 
L 678 1741 
L 678 2272 
z
" transform="scale(0.015625)"/>
        <path id="DejaVuSans-32" d="M 1228 531 
L 3431 531 
L 3431 0 
L 469 0 
L 469 531 
Q 828 903 1448 1529 
Q 2069 2156 2228 2338 
Q 2531 2678 2651 2914 
Q 2772 3150 2772 3378 
Q 2772 3750 2511 3984 
Q 2250 4219 1831 4219 
Q 1534 4219 1204 4116 
Q 875 4013 500 3803 
L 500 4441 
Q 881 4594 1212 4672 
Q 1544 4750 1819 4750 
Q 2544 4750 2975 4387 
Q 3406 4025 3406 3419 
Q 3406 3131 3298 2873 
Q 3191 2616 2906 2266 
Q 2828 2175 2409 1742 
Q 1991 1309 1228 531 
z
" transform="scale(0.015625)"/>
        <path id="DejaVuSans-30" d="M 2034 4250 
Q 1547 4250 1301 3770 
Q 1056 3291 1056 2328 
Q 1056 1369 1301 889 
Q 1547 409 2034 409 
Q 2525 409 2770 889 
Q 3016 1369 3016 2328 
Q 3016 3291 2770 3770 
Q 2525 4250 2034 4250 
z
M 2034 4750 
Q 2819 4750 3233 4129 
Q 3647 3509 3647 2328 
Q 3647 1150 3233 529 
Q 2819 -91 2034 -91 
Q 1250 -91 836 529 
Q 422 1150 422 2328 
Q 422 3509 836 4129 
Q 1250 4750 2034 4750 
z
" transform="scale(0.015625)"/>
       </defs>
       <use xlink:href="#DejaVuSans-2212"/>
       <use xlink:href="#DejaVuSans-32" x="83.789062"/>
       <use xlink:href="#DejaVuSans-30" x="147.412109"/>
      </g>
     </g>
    </g>
    <g id="ytick_2">
     <g id="line2d_4">
      <g>
       <use xlink:href="#m64b980ec3b" x="48.982813" y="199.185137" style="stroke: #000000; stroke-width: 0.8"/>
      </g>
     </g>
     <g id="text_4">
      <!-- 0 -->
      <g transform="translate(35.620313 202.984355)scale(0.1 -0.1)">
       <use xlink:href="#DejaVuSans-30"/>
      </g>
     </g>
    </g>
    <g id="ytick_3">
     <g id="line2d_5">
      <g>
       <use xlink:href="#m64b980ec3b" x="48.982813" y="167.200995" style="stroke: #000000; stroke-width: 0.8"/>
      </g>
     </g>
     <g id="text_5">
      <!-- 20 -->
      <g transform="translate(29.257813 171.000214)scale(0.1 -0.1)">
       <use xlink:href="#DejaVuSans-32"/>
       <use xlink:href="#DejaVuSans-30" x="63.623047"/>
      </g>
     </g>
    </g>
    <g id="ytick_4">
     <g id="line2d_6">
      <g>
       <use xlink:href="#m64b980ec3b" x="48.982813" y="135.216853" style="stroke: #000000; stroke-width: 0.8"/>
      </g>
     </g>
     <g id="text_6">
      <!-- 40 -->
      <g transform="translate(29.257813 139.016072)scale(0.1 -0.1)">
       <defs>
        <path id="DejaVuSans-34" d="M 2419 4116 
L 825 1625 
L 2419 1625 
L 2419 4116 
z
M 2253 4666 
L 3047 4666 
L 3047 1625 
L 3713 1625 
L 3713 1100 
L 3047 1100 
L 3047 0 
L 2419 0 
L 2419 1100 
L 313 1100 
L 313 1709 
L 2253 4666 
z
" transform="scale(0.015625)"/>
       </defs>
       <use xlink:href="#DejaVuSans-34"/>
       <use xlink:href="#DejaVuSans-30" x="63.623047"/>
      </g>
     </g>
    </g>
    <g id="ytick_5">
     <g id="line2d_7">
      <g>
       <use xlink:href="#m64b980ec3b" x="48.982813" y="103.232711" style="stroke: #000000; stroke-width: 0.8"/>
      </g>
     </g>
     <g id="text_7">
      <!-- 60 -->
      <g transform="translate(29.257813 107.03193)scale(0.1 -0.1)">
       <defs>
        <path id="DejaVuSans-36" d="M 2113 2584 
Q 1688 2584 1439 2293 
Q 1191 2003 1191 1497 
Q 1191 994 1439 701 
Q 1688 409 2113 409 
Q 2538 409 2786 701 
Q 3034 994 3034 1497 
Q 3034 2003 2786 2293 
Q 2538 2584 2113 2584 
z
M 3366 4563 
L 3366 3988 
Q 3128 4100 2886 4159 
Q 2644 4219 2406 4219 
Q 1781 4219 1451 3797 
Q 1122 3375 1075 2522 
Q 1259 2794 1537 2939 
Q 1816 3084 2150 3084 
Q 2853 3084 3261 2657 
Q 3669 2231 3669 1497 
Q 3669 778 3244 343 
Q 2819 -91 2113 -91 
Q 1303 -91 875 529 
Q 447 1150 447 2328 
Q 447 3434 972 4092 
Q 1497 4750 2381 4750 
Q 2619 4750 2861 4703 
Q 3103 4656 3366 4563 
z
" transform="scale(0.015625)"/>
       </defs>
       <use xlink:href="#DejaVuSans-36"/>
       <use xlink:href="#DejaVuSans-30" x="63.623047"/>
      </g>
     </g>
    </g>
    <g id="ytick_6">
     <g id="line2d_8">
      <g>
       <use xlink:href="#m64b980ec3b" x="48.982813" y="71.24857" style="stroke: #000000; stroke-width: 0.8"/>
      </g>
     </g>
     <g id="text_8">
      <!-- 80 -->
      <g transform="translate(29.257813 75.047788)scale(0.1 -0.1)">
       <defs>
        <path id="DejaVuSans-38" d="M 2034 2216 
Q 1584 2216 1326 1975 
Q 1069 1734 1069 1313 
Q 1069 891 1326 650 
Q 1584 409 2034 409 
Q 2484 409 2743 651 
Q 3003 894 3003 1313 
Q 3003 1734 2745 1975 
Q 2488 2216 2034 2216 
z
M 1403 2484 
Q 997 2584 770 2862 
Q 544 3141 544 3541 
Q 544 4100 942 4425 
Q 1341 4750 2034 4750 
Q 2731 4750 3128 4425 
Q 3525 4100 3525 3541 
Q 3525 3141 3298 2862 
Q 3072 2584 2669 2484 
Q 3125 2378 3379 2068 
Q 3634 1759 3634 1313 
Q 3634 634 3220 271 
Q 2806 -91 2034 -91 
Q 1263 -91 848 271 
Q 434 634 434 1313 
Q 434 1759 690 2068 
Q 947 2378 1403 2484 
z
M 1172 3481 
Q 1172 3119 1398 2916 
Q 1625 2713 2034 2713 
Q 2441 2713 2670 2916 
Q 2900 3119 2900 3481 
Q 2900 3844 2670 4047 
Q 2441 4250 2034 4250 
Q 1625 4250 1398 4047 
Q 1172 3844 1172 3481 
z
" transform="scale(0.015625)"/>
       </defs>
       <use xlink:href="#DejaVuSans-38"/>
       <use xlink:href="#DejaVuSans-30" x="63.623047"/>
      </g>
     </g>
    </g>
    <g id="ytick_7">
     <g id="line2d_9">
      <g>
       <use xlink:href="#m64b980ec3b" x="48.982813" y="39.264428" style="stroke: #000000; stroke-width: 0.8"/>
      </g>
     </g>
     <g id="text_9">
      <!-- 100 -->
      <g transform="translate(22.895313 43.063646)scale(0.1 -0.1)">
       <defs>
        <path id="DejaVuSans-31" d="M 794 531 
L 1825 531 
L 1825 4091 
L 703 3866 
L 703 4441 
L 1819 4666 
L 2450 4666 
L 2450 531 
L 3481 531 
L 3481 0 
L 794 0 
L 794 531 
z
" transform="scale(0.015625)"/>
       </defs>
       <use xlink:href="#DejaVuSans-31"/>
       <use xlink:href="#DejaVuSans-30" x="63.623047"/>
       <use xlink:href="#DejaVuSans-30" x="127.246094"/>
      </g>
     </g>
    </g>
    <g id="text_10">
     <!-- Execution Time (s) -->
     <g transform="translate(14.798438 177.490469)rotate(-90)scale(0.1 -0.1)">
      <defs>
       <path id="DejaVuSans-45" d="M 628 4666 
L 3578 4666 
L 3578 4134 
L 1259 4134 
L 1259 2753 
L 3481 2753 
L 3481 2222 
L 1259 2222 
L 1259 531 
L 3634 531 
L 3634 0 
L 628 0 
L 628 4666 
z
" transform="scale(0.015625)"/>
       <path id="DejaVuSans-78" d="M 3513 3500 
L 2247 1797 
L 3578 0 
L 2900 0 
L 1881 1375 
L 863 0 
L 184 0 
L 1544 1831 
L 300 3500 
L 978 3500 
L 1906 2253 
L 2834 3500 
L 3513 3500 
z
" transform="scale(0.015625)"/>
       <path id="DejaVuSans-65" d="M 3597 1894 
L 3597 1613 
L 953 1613 
Q 991 1019 1311 708 
Q 1631 397 2203 397 
Q 2534 397 2845 478 
Q 3156 559 3463 722 
L 3463 178 
Q 3153 47 2828 -22 
Q 2503 -91 2169 -91 
Q 1331 -91 842 396 
Q 353 884 353 1716 
Q 353 2575 817 3079 
Q 1281 3584 2069 3584 
Q 2775 3584 3186 3129 
Q 3597 2675 3597 1894 
z
M 3022 2063 
Q 3016 2534 2758 2815 
Q 2500 3097 2075 3097 
Q 1594 3097 1305 2825 
Q 1016 2553 972 2059 
L 3022 2063 
z
" transform="scale(0.015625)"/>
       <path id="DejaVuSans-75" d="M 544 1381 
L 544 3500 
L 1119 3500 
L 1119 1403 
Q 1119 906 1312 657 
Q 1506 409 1894 409 
Q 2359 409 2629 706 
Q 2900 1003 2900 1516 
L 2900 3500 
L 3475 3500 
L 3475 0 
L 2900 0 
L 2900 538 
Q 2691 219 2414 64 
Q 2138 -91 1772 -91 
Q 1169 -91 856 284 
Q 544 659 544 1381 
z
M 1991 3584 
L 1991 3584 
z
" transform="scale(0.015625)"/>
       <path id="DejaVuSans-69" d="M 603 3500 
L 1178 3500 
L 1178 0 
L 603 0 
L 603 3500 
z
M 603 4863 
L 1178 4863 
L 1178 4134 
L 603 4134 
L 603 4863 
z
" transform="scale(0.015625)"/>
       <path id="DejaVuSans-6e" d="M 3513 2113 
L 3513 0 
L 2938 0 
L 2938 2094 
Q 2938 2591 2744 2837 
Q 2550 3084 2163 3084 
Q 1697 3084 1428 2787 
Q 1159 2491 1159 1978 
L 1159 0 
L 581 0 
L 581 3500 
L 1159 3500 
L 1159 2956 
Q 1366 3272 1645 3428 
Q 1925 3584 2291 3584 
Q 2894 3584 3203 3211 
Q 3513 2838 3513 2113 
z
" transform="scale(0.015625)"/>
       <path id="DejaVuSans-20" transform="scale(0.015625)"/>
       <path id="DejaVuSans-54" d="M -19 4666 
L 3928 4666 
L 3928 4134 
L 2272 4134 
L 2272 0 
L 1638 0 
L 1638 4134 
L -19 4134 
L -19 4666 
z
" transform="scale(0.015625)"/>
       <path id="DejaVuSans-6d" d="M 3328 2828 
Q 3544 3216 3844 3400 
Q 4144 3584 4550 3584 
Q 5097 3584 5394 3201 
Q 5691 2819 5691 2113 
L 5691 0 
L 5113 0 
L 5113 2094 
Q 5113 2597 4934 2840 
Q 4756 3084 4391 3084 
Q 3944 3084 3684 2787 
Q 3425 2491 3425 1978 
L 3425 0 
L 2847 0 
L 2847 2094 
Q 2847 2600 2669 2842 
Q 2491 3084 2119 3084 
Q 1678 3084 1418 2786 
Q 1159 2488 1159 1978 
L 1159 0 
L 581 0 
L 581 3500 
L 1159 3500 
L 1159 2956 
Q 1356 3278 1631 3431 
Q 1906 3584 2284 3584 
Q 2666 3584 2933 3390 
Q 3200 3197 3328 2828 
z
" transform="scale(0.015625)"/>
       <path id="DejaVuSans-28" d="M 1984 4856 
Q 1566 4138 1362 3434 
Q 1159 2731 1159 2009 
Q 1159 1288 1364 580 
Q 1569 -128 1984 -844 
L 1484 -844 
Q 1016 -109 783 600 
Q 550 1309 550 2009 
Q 550 2706 781 3412 
Q 1013 4119 1484 4856 
L 1984 4856 
z
" transform="scale(0.015625)"/>
       <path id="DejaVuSans-73" d="M 2834 3397 
L 2834 2853 
Q 2591 2978 2328 3040 
Q 2066 3103 1784 3103 
Q 1356 3103 1142 2972 
Q 928 2841 928 2578 
Q 928 2378 1081 2264 
Q 1234 2150 1697 2047 
L 1894 2003 
Q 2506 1872 2764 1633 
Q 3022 1394 3022 966 
Q 3022 478 2636 193 
Q 2250 -91 1575 -91 
Q 1294 -91 989 -36 
Q 684 19 347 128 
L 347 722 
Q 666 556 975 473 
Q 1284 391 1588 391 
Q 1994 391 2212 530 
Q 2431 669 2431 922 
Q 2431 1156 2273 1281 
Q 2116 1406 1581 1522 
L 1381 1569 
Q 847 1681 609 1914 
Q 372 2147 372 2553 
Q 372 3047 722 3315 
Q 1072 3584 1716 3584 
Q 2034 3584 2315 3537 
Q 2597 3491 2834 3397 
z
" transform="scale(0.015625)"/>
       <path id="DejaVuSans-29" d="M 513 4856 
L 1013 4856 
Q 1481 4119 1714 3412 
Q 1947 2706 1947 2009 
Q 1947 1309 1714 600 
Q 1481 -109 1013 -844 
L 513 -844 
Q 928 -128 1133 580 
Q 1338 1288 1338 2009 
Q 1338 2731 1133 3434 
Q 928 4138 513 4856 
z
" transform="scale(0.015625)"/>
      </defs>
      <use xlink:href="#DejaVuSans-45"/>
      <use xlink:href="#DejaVuSans-78" x="63.183594"/>
      <use xlink:href="#DejaVuSans-65" x="119.238281"/>
      <use xlink:href="#DejaVuSans-63" x="180.761719"/>
      <use xlink:href="#DejaVuSans-75" x="235.742188"/>
      <use xlink:href="#DejaVuSans-74" x="299.121094"/>
      <use xlink:href="#DejaVuSans-69" x="338.330078"/>
      <use xlink:href="#DejaVuSans-6f" x="366.113281"/>
      <use xlink:href="#DejaVuSans-6e" x="427.294922"/>
      <use xlink:href="#DejaVuSans-20" x="490.673828"/>
      <use xlink:href="#DejaVuSans-54" x="522.460938"/>
      <use xlink:href="#DejaVuSans-69" x="580.419922"/>
      <use xlink:href="#DejaVuSans-6d" x="608.203125"/>
      <use xlink:href="#DejaVuSans-65" x="705.615234"/>
      <use xlink:href="#DejaVuSans-20" x="767.138672"/>
      <use xlink:href="#DejaVuSans-28" x="798.925781"/>
      <use xlink:href="#DejaVuSans-73" x="837.939453"/>
      <use xlink:href="#DejaVuSans-29" x="890.039062"/>
     </g>
    </g>
   </g>
   <g id="line2d_10">
    <path d="M 132.682813 193.627892 
L 132.682813 68.448358 
" clip-path="url(#pd1410d23bd)" style="fill: none; stroke: #3f3f3f; stroke-width: 1.5; stroke-linecap: square"/>
   </g>
   <g id="line2d_11">
    <path d="M 132.682813 185.118111 
L 132.682813 100.905865 
" clip-path="url(#pd1410d23bd)" style="fill: none; stroke: #3f3f3f; stroke-width: 4.5; stroke-linecap: square"/>
   </g>
   <g id="line2d_12">
    <path d="M 300.082813 195.556536 
L 300.082813 165.684947 
" clip-path="url(#pd1410d23bd)" style="fill: none; stroke: #3f3f3f; stroke-width: 1.5; stroke-linecap: square"/>
   </g>
   <g id="line2d_13">
    <path d="M 300.082813 189.243266 
L 300.082813 179.202245 
" clip-path="url(#pd1410d23bd)" style="fill: none; stroke: #3f3f3f; stroke-width: 4.5; stroke-linecap: square"/>
   </g>
   <g id="patch_3">
    <path d="M 48.982813 239.758125 
L 48.982813 22.318125 
" style="fill: none; stroke: #000000; stroke-width: 0.8; stroke-linejoin: miter; stroke-linecap: square"/>
   </g>
   <g id="patch_4">
    <path d="M 383.782813 239.758125 
L 383.782813 22.318125 
" style="fill: none; stroke: #000000; stroke-width: 0.8; stroke-linejoin: miter; stroke-linecap: square"/>
   </g>
   <g id="patch_5">
    <path d="M 48.982813 239.758125 
L 383.782813 239.758125 
" style="fill: none; stroke: #000000; stroke-width: 0.8; stroke-linejoin: miter; stroke-linecap: square"/>
   </g>
   <g id="patch_6">
    <path d="M 48.982813 22.318125 
L 383.782813 22.318125 
" style="fill: none; stroke: #000000; stroke-width: 0.8; stroke-linejoin: miter; stroke-linecap: square"/>
   </g>
   <g id="PathCollection_1">
    <defs>
     <path id="m0f13d5b02b" d="M 0 1.5 
C 0.397805 1.5 0.77937 1.341951 1.06066 1.06066 
C 1.341951 0.77937 1.5 0.397805 1.5 0 
C 1.5 -0.397805 1.341951 -0.77937 1.06066 -1.06066 
C 0.77937 -1.341951 0.397805 -1.5 0 -1.5 
C -0.397805 -1.5 -0.77937 -1.341951 -1.06066 -1.06066 
C -1.341951 -0.77937 -1.5 -0.397805 -1.5 0 
C -1.5 0.397805 -1.341951 0.77937 -1.06066 1.06066 
C -0.77937 1.341951 -0.397805 1.5 0 1.5 
z
" style="stroke: #3f3f3f"/>
    </defs>
    <g clip-path="url(#pd1410d23bd)">
     <use xlink:href="#m0f13d5b02b" x="132.682813" y="150.055896" style="fill: #ffffff; stroke: #3f3f3f"/>
    </g>
   </g>
   <g id="PathCollection_2">
    <g clip-path="url(#pd1410d23bd)">
     <use xlink:href="#m0f13d5b02b" x="300.082813" y="182.5198" style="fill: #ffffff; stroke: #3f3f3f"/>
    </g>
   </g>
   <g id="text_11">
    <!-- Execution time (s) per fault localization (target=java7) -->
    <g transform="translate(52.25 16.318125)scale(0.12 -0.12)">
     <defs>
      <path id="DejaVuSans-70" d="M 1159 525 
L 1159 -1331 
L 581 -1331 
L 581 3500 
L 1159 3500 
L 1159 2969 
Q 1341 3281 1617 3432 
Q 1894 3584 2278 3584 
Q 2916 3584 3314 3078 
Q 3713 2572 3713 1747 
Q 3713 922 3314 415 
Q 2916 -91 2278 -91 
Q 1894 -91 1617 61 
Q 1341 213 1159 525 
z
M 3116 1747 
Q 3116 2381 2855 2742 
Q 2594 3103 2138 3103 
Q 1681 3103 1420 2742 
Q 1159 2381 1159 1747 
Q 1159 1113 1420 752 
Q 1681 391 2138 391 
Q 2594 391 2855 752 
Q 3116 1113 3116 1747 
z
" transform="scale(0.015625)"/>
      <path id="DejaVuSans-66" d="M 2375 4863 
L 2375 4384 
L 1825 4384 
Q 1516 4384 1395 4259 
Q 1275 4134 1275 3809 
L 1275 3500 
L 2222 3500 
L 2222 3053 
L 1275 3053 
L 1275 0 
L 697 0 
L 697 3053 
L 147 3053 
L 147 3500 
L 697 3500 
L 697 3744 
Q 697 4328 969 4595 
Q 1241 4863 1831 4863 
L 2375 4863 
z
" transform="scale(0.015625)"/>
      <path id="DejaVuSans-7a" d="M 353 3500 
L 3084 3500 
L 3084 2975 
L 922 459 
L 3084 459 
L 3084 0 
L 275 0 
L 275 525 
L 2438 3041 
L 353 3041 
L 353 3500 
z
" transform="scale(0.015625)"/>
      <path id="DejaVuSans-67" d="M 2906 1791 
Q 2906 2416 2648 2759 
Q 2391 3103 1925 3103 
Q 1463 3103 1205 2759 
Q 947 2416 947 1791 
Q 947 1169 1205 825 
Q 1463 481 1925 481 
Q 2391 481 2648 825 
Q 2906 1169 2906 1791 
z
M 3481 434 
Q 3481 -459 3084 -895 
Q 2688 -1331 1869 -1331 
Q 1566 -1331 1297 -1286 
Q 1028 -1241 775 -1147 
L 775 -588 
Q 1028 -725 1275 -790 
Q 1522 -856 1778 -856 
Q 2344 -856 2625 -561 
Q 2906 -266 2906 331 
L 2906 616 
Q 2728 306 2450 153 
Q 2172 0 1784 0 
Q 1141 0 747 490 
Q 353 981 353 1791 
Q 353 2603 747 3093 
Q 1141 3584 1784 3584 
Q 2172 3584 2450 3431 
Q 2728 3278 2906 2969 
L 2906 3500 
L 3481 3500 
L 3481 434 
z
" transform="scale(0.015625)"/>
      <path id="DejaVuSans-3d" d="M 678 2906 
L 4684 2906 
L 4684 2381 
L 678 2381 
L 678 2906 
z
M 678 1631 
L 4684 1631 
L 4684 1100 
L 678 1100 
L 678 1631 
z
" transform="scale(0.015625)"/>
      <path id="DejaVuSans-6a" d="M 603 3500 
L 1178 3500 
L 1178 -63 
Q 1178 -731 923 -1031 
Q 669 -1331 103 -1331 
L -116 -1331 
L -116 -844 
L 38 -844 
Q 366 -844 484 -692 
Q 603 -541 603 -63 
L 603 3500 
z
M 603 4863 
L 1178 4863 
L 1178 4134 
L 603 4134 
L 603 4863 
z
" transform="scale(0.015625)"/>
      <path id="DejaVuSans-76" d="M 191 3500 
L 800 3500 
L 1894 563 
L 2988 3500 
L 3597 3500 
L 2284 0 
L 1503 0 
L 191 3500 
z
" transform="scale(0.015625)"/>
      <path id="DejaVuSans-37" d="M 525 4666 
L 3525 4666 
L 3525 4397 
L 1831 0 
L 1172 0 
L 2766 4134 
L 525 4134 
L 525 4666 
z
" transform="scale(0.015625)"/>
     </defs>
     <use xlink:href="#DejaVuSans-45"/>
     <use xlink:href="#DejaVuSans-78" x="63.183594"/>
     <use xlink:href="#DejaVuSans-65" x="119.238281"/>
     <use xlink:href="#DejaVuSans-63" x="180.761719"/>
     <use xlink:href="#DejaVuSans-75" x="235.742188"/>
     <use xlink:href="#DejaVuSans-74" x="299.121094"/>
     <use xlink:href="#DejaVuSans-69" x="338.330078"/>
     <use xlink:href="#DejaVuSans-6f" x="366.113281"/>
     <use xlink:href="#DejaVuSans-6e" x="427.294922"/>
     <use xlink:href="#DejaVuSans-20" x="490.673828"/>
     <use xlink:href="#DejaVuSans-74" x="522.460938"/>
     <use xlink:href="#DejaVuSans-69" x="561.669922"/>
     <use xlink:href="#DejaVuSans-6d" x="589.453125"/>
     <use xlink:href="#DejaVuSans-65" x="686.865234"/>
     <use xlink:href="#DejaVuSans-20" x="748.388672"/>
     <use xlink:href="#DejaVuSans-28" x="780.175781"/>
     <use xlink:href="#DejaVuSans-73" x="819.189453"/>
     <use xlink:href="#DejaVuSans-29" x="871.289062"/>
     <use xlink:href="#DejaVuSans-20" x="910.302734"/>
     <use xlink:href="#DejaVuSans-70" x="942.089844"/>
     <use xlink:href="#DejaVuSans-65" x="1005.566406"/>
     <use xlink:href="#DejaVuSans-72" x="1067.089844"/>
     <use xlink:href="#DejaVuSans-20" x="1108.203125"/>
     <use xlink:href="#DejaVuSans-66" x="1139.990234"/>
     <use xlink:href="#DejaVuSans-61" x="1175.195312"/>
     <use xlink:href="#DejaVuSans-75" x="1236.474609"/>
     <use xlink:href="#DejaVuSans-6c" x="1299.853516"/>
     <use xlink:href="#DejaVuSans-74" x="1327.636719"/>
     <use xlink:href="#DejaVuSans-20" x="1366.845703"/>
     <use xlink:href="#DejaVuSans-6c" x="1398.632812"/>
     <use xlink:href="#DejaVuSans-6f" x="1426.416016"/>
     <use xlink:href="#DejaVuSans-63" x="1487.597656"/>
     <use xlink:href="#DejaVuSans-61" x="1542.578125"/>
     <use xlink:href="#DejaVuSans-6c" x="1603.857422"/>
     <use xlink:href="#DejaVuSans-69" x="1631.640625"/>
     <use xlink:href="#DejaVuSans-7a" x="1659.423828"/>
     <use xlink:href="#DejaVuSans-61" x="1711.914062"/>
     <use xlink:href="#DejaVuSans-74" x="1773.193359"/>
     <use xlink:href="#DejaVuSans-69" x="1812.402344"/>
     <use xlink:href="#DejaVuSans-6f" x="1840.185547"/>
     <use xlink:href="#DejaVuSans-6e" x="1901.367188"/>
     <use xlink:href="#DejaVuSans-20" x="1964.746094"/>
     <use xlink:href="#DejaVuSans-28" x="1996.533203"/>
     <use xlink:href="#DejaVuSans-74" x="2035.546875"/>
     <use xlink:href="#DejaVuSans-61" x="2074.755859"/>
     <use xlink:href="#DejaVuSans-72" x="2136.035156"/>
     <use xlink:href="#DejaVuSans-67" x="2175.398438"/>
     <use xlink:href="#DejaVuSans-65" x="2238.875"/>
     <use xlink:href="#DejaVuSans-74" x="2300.398438"/>
     <use xlink:href="#DejaVuSans-3d" x="2339.607422"/>
     <use xlink:href="#DejaVuSans-6a" x="2423.396484"/>
     <use xlink:href="#DejaVuSans-61" x="2451.179688"/>
     <use xlink:href="#DejaVuSans-76" x="2512.458984"/>
     <use xlink:href="#DejaVuSans-61" x="2571.638672"/>
     <use xlink:href="#DejaVuSans-37" x="2632.917969"/>
     <use xlink:href="#DejaVuSans-29" x="2696.541016"/>
    </g>
   </g>
  </g>
 </g>
 <defs>
  <clipPath id="pd1410d23bd">
   <rect x="48.982813" y="22.318125" width="334.8" height="217.44"/>
  </clipPath>
 </defs>
</svg>
