<?xml version="1.0" encoding="utf-8" standalone="no"?>
<!DOCTYPE svg PUBLIC "-//W3C//DTD SVG 1.1//EN"
  "http://www.w3.org/Graphics/SVG/1.1/DTD/svg11.dtd">
<svg xmlns:xlink="http://www.w3.org/1999/xlink" width="388.965625pt" height="263.63625pt" viewBox="0 0 388.965625 263.63625" xmlns="http://www.w3.org/2000/svg" version="1.1">
 <metadata>
  <rdf:RDF xmlns:dc="http://purl.org/dc/elements/1.1/" xmlns:cc="http://creativecommons.org/ns#" xmlns:rdf="http://www.w3.org/1999/02/22-rdf-syntax-ns#">
   <cc:Work>
    <dc:type rdf:resource="http://purl.org/dc/dcmitype/StillImage"/>
    <dc:date>2022-10-10T10:58:32.565673</dc:date>
    <dc:format>image/svg+xml</dc:format>
    <dc:creator>
     <cc:Agent>
      <dc:title>Matplotlib v3.5.2, https://matplotlib.org/</dc:title>
     </cc:Agent>
    </dc:creator>
   </cc:Work>
  </rdf:RDF>
 </metadata>
 <defs>
  <style type="text/css">*{stroke-linejoin: round; stroke-linecap: butt}</style>
 </defs>
 <g id="figure_1">
  <g id="patch_1">
   <path d="M 0 263.63625 
L 388.965625 263.63625 
L 388.965625 0 
L 0 0 
L 0 263.63625 
z
" style="fill: none"/>
  </g>
  <g id="axes_1">
   <g id="patch_2">
    <path d="M 46.965625 239.758125 
L 381.765625 239.758125 
L 381.765625 22.318125 
L 46.965625 22.318125 
z
" style="fill: #ffffff"/>
   </g>
   <g id="PolyCollection_1">
    <defs>
     <path id="m33b2e4df46" d="M 131.991775 -33.761761 
L 129.339475 -33.761761 
L 128.537678 -35.758456 
L 127.423495 -37.75515 
L 125.970852 -39.751844 
L 124.19597 -41.748538 
L 122.165784 -43.745232 
L 119.992988 -45.741927 
L 117.815495 -47.738621 
L 115.764293 -49.735315 
L 113.929758 -51.732009 
L 112.33921 -53.728704 
L 110.955872 -55.725398 
L 109.701807 -57.722092 
L 108.497905 -59.718786 
L 107.30677 -61.71548 
L 106.162639 -63.712175 
L 105.176973 -65.708869 
L 104.517 -67.705563 
L 104.363833 -69.702257 
L 104.863281 -71.698951 
L 106.084261 -73.695646 
L 107.996563 -75.69234 
L 110.473245 -77.689034 
L 113.315521 -79.685728 
L 116.291911 -81.682423 
L 119.180438 -83.679117 
L 121.803299 -85.675811 
L 124.04692 -87.672505 
L 125.865428 -89.669199 
L 127.270238 -91.665894 
L 128.311539 -93.662588 
L 129.058124 -95.659282 
L 129.58065 -97.655976 
L 129.940939 -99.65267 
L 130.187434 -101.649365 
L 130.355244 -103.646059 
L 130.468637 -105.642753 
L 130.544168 -107.639447 
L 130.59331 -109.636142 
L 130.62426 -111.632836 
L 130.642984 -113.62953 
L 130.653803 -115.626224 
L 130.65975 -117.622918 
L 130.66285 -119.619613 
L 130.664381 -121.616307 
L 130.665096 -123.613001 
L 130.665412 -125.609695 
L 130.665544 -127.606389 
L 130.665596 -129.603084 
L 130.665615 -131.599778 
L 130.665622 -133.596472 
L 130.665624 -135.593166 
L 130.665625 -137.589861 
L 130.665625 -139.586555 
L 130.665625 -141.583249 
L 130.665625 -143.579943 
L 130.665625 -145.576637 
L 130.665625 -147.573332 
L 130.665625 -149.570026 
L 130.665625 -151.56672 
L 130.665625 -153.563414 
L 130.665625 -155.560108 
L 130.665625 -157.556803 
L 130.665625 -159.553497 
L 130.665625 -161.550191 
L 130.665625 -163.546885 
L 130.665625 -165.54358 
L 130.665625 -167.540274 
L 130.665624 -169.536968 
L 130.665623 -171.533662 
L 130.665619 -173.530356 
L 130.665606 -175.527051 
L 130.665573 -177.523745 
L 130.665485 -179.520439 
L 130.665271 -181.517133 
L 130.664775 -183.513827 
L 130.663695 -185.510522 
L 130.661478 -187.507216 
L 130.657188 -189.50391 
L 130.649376 -191.500604 
L 130.636 -193.497299 
L 130.614494 -195.493993 
L 130.582081 -197.490687 
L 130.536404 -199.487381 
L 130.476412 -201.484075 
L 130.403346 -203.48077 
L 130.321456 -205.477464 
L 130.238087 -207.474158 
L 130.16285 -209.470852 
L 130.105909 -211.467546 
L 130.075753 -213.464241 
L 130.07713 -215.460935 
L 130.109819 -217.457629 
L 130.168691 -219.454323 
L 130.245024 -221.451018 
L 130.328619 -223.447712 
L 130.410002 -225.444406 
L 130.482074 -227.4411 
L 130.540855 -229.437794 
L 130.585336 -231.434489 
L 130.745914 -231.434489 
L 130.745914 -231.434489 
L 130.790395 -229.437794 
L 130.849176 -227.4411 
L 130.921248 -225.444406 
L 131.002631 -223.447712 
L 131.086226 -221.451018 
L 131.162559 -219.454323 
L 131.221431 -217.457629 
L 131.25412 -215.460935 
L 131.255497 -213.464241 
L 131.225341 -211.467546 
L 131.1684 -209.470852 
L 131.093163 -207.474158 
L 131.009794 -205.477464 
L 130.927904 -203.48077 
L 130.854838 -201.484075 
L 130.794846 -199.487381 
L 130.749169 -197.490687 
L 130.716756 -195.493993 
L 130.69525 -193.497299 
L 130.681874 -191.500604 
L 130.674062 -189.50391 
L 130.669772 -187.507216 
L 130.667555 -185.510522 
L 130.666475 -183.513827 
L 130.665979 -181.517133 
L 130.665765 -179.520439 
L 130.665677 -177.523745 
L 130.665644 -175.527051 
L 130.665631 -173.530356 
L 130.665627 -171.533662 
L 130.665626 -169.536968 
L 130.665625 -167.540274 
L 130.665625 -165.54358 
L 130.665625 -163.546885 
L 130.665625 -161.550191 
L 130.665625 -159.553497 
L 130.665625 -157.556803 
L 130.665625 -155.560108 
L 130.665625 -153.563414 
L 130.665625 -151.56672 
L 130.665625 -149.570026 
L 130.665625 -147.573332 
L 130.665625 -145.576637 
L 130.665625 -143.579943 
L 130.665625 -141.583249 
L 130.665625 -139.586555 
L 130.665625 -137.589861 
L 130.665626 -135.593166 
L 130.665628 -133.596472 
L 130.665635 -131.599778 
L 130.665654 -129.603084 
L 130.665706 -127.606389 
L 130.665838 -125.609695 
L 130.666154 -123.613001 
L 130.666869 -121.616307 
L 130.6684 -119.619613 
L 130.6715 -117.622918 
L 130.677447 -115.626224 
L 130.688266 -113.62953 
L 130.70699 -111.632836 
L 130.73794 -109.636142 
L 130.787082 -107.639447 
L 130.862613 -105.642753 
L 130.976006 -103.646059 
L 131.143816 -101.649365 
L 131.390311 -99.65267 
L 131.7506 -97.655976 
L 132.273126 -95.659282 
L 133.019711 -93.662588 
L 134.061012 -91.665894 
L 135.465822 -89.669199 
L 137.28433 -87.672505 
L 139.527951 -85.675811 
L 142.150812 -83.679117 
L 145.039339 -81.682423 
L 148.015729 -79.685728 
L 150.858005 -77.689034 
L 153.334687 -75.69234 
L 155.246989 -73.695646 
L 156.467969 -71.698951 
L 156.967417 -69.702257 
L 156.81425 -67.705563 
L 156.154277 -65.708869 
L 155.168611 -63.712175 
L 154.02448 -61.71548 
L 152.833345 -59.718786 
L 151.629443 -57.722092 
L 150.375378 -55.725398 
L 148.99204 -53.728704 
L 147.401492 -51.732009 
L 145.566957 -49.735315 
L 143.515755 -47.738621 
L 141.338262 -45.741927 
L 139.165466 -43.745232 
L 137.13528 -41.748538 
L 135.360398 -39.751844 
L 133.907755 -37.75515 
L 132.793572 -35.758456 
L 131.991775 -33.761761 
z
" style="stroke: #3f3f3f; stroke-width: 1.5"/>
    </defs>
    <g clip-path="url(#p286cd53558)">
     <use xlink:href="#m33b2e4df46" x="0" y="263.63625" style="fill: #3274a1; stroke: #3f3f3f; stroke-width: 1.5"/>
    </g>
   </g>
   <g id="PolyCollection_2">
    <defs>
     <path id="mb887cc9292" d="M 300.923189 -41.23246 
L 295.208061 -41.23246 
L 293.233358 -42.305966 
L 290.295555 -43.379472 
L 286.177109 -44.452978 
L 280.744023 -45.526484 
L 274.013503 -46.59999 
L 266.209934 -47.673496 
L 257.787809 -48.747002 
L 249.405044 -49.820508 
L 241.842524 -50.894014 
L 235.882326 -51.96752 
L 232.171588 -53.041026 
L 231.105625 -54.114532 
L 232.759561 -55.188038 
L 236.88407 -56.261545 
L 242.962921 -57.335051 
L 250.31434 -58.408557 
L 258.209497 -59.482063 
L 265.98131 -60.555569 
L 273.103645 -61.629075 
L 279.231571 -62.702581 
L 284.203848 -63.776087 
L 288.016591 -64.849593 
L 290.780693 -65.923099 
L 292.675188 -66.996605 
L 293.905545 -68.070111 
L 294.671736 -69.143617 
L 295.147209 -70.217123 
L 295.467667 -71.290629 
L 295.727637 -72.364135 
L 295.982842 -73.437641 
L 296.256628 -74.511147 
L 296.548825 -75.584653 
L 296.84543 -76.65816 
L 297.127515 -77.731666 
L 297.378079 -78.805172 
L 297.586097 -79.878678 
L 297.747769 -80.952184 
L 297.865586 -82.02569 
L 297.946195 -83.099196 
L 297.998028 -84.172702 
L 298.029375 -85.246208 
L 298.047216 -86.319714 
L 298.056776 -87.39322 
L 298.0616 -88.466726 
L 298.063893 -89.540232 
L 298.06492 -90.613738 
L 298.065354 -91.687244 
L 298.065526 -92.76075 
L 298.065591 -93.834256 
L 298.065614 -94.907762 
L 298.065622 -95.981268 
L 298.065624 -97.054775 
L 298.065625 -98.128281 
L 298.065625 -99.201787 
L 298.065625 -100.275293 
L 298.065625 -101.348799 
L 298.065625 -102.422305 
L 298.065625 -103.495811 
L 298.065625 -104.569317 
L 298.065625 -105.642823 
L 298.065625 -106.716329 
L 298.065625 -107.789835 
L 298.065625 -108.863341 
L 298.065625 -109.936847 
L 298.065625 -111.010353 
L 298.065625 -112.083859 
L 298.065625 -113.157365 
L 298.065625 -114.230871 
L 298.065623 -115.304377 
L 298.065619 -116.377883 
L 298.065607 -117.45139 
L 298.065571 -118.524896 
L 298.065471 -119.598402 
L 298.065216 -120.671908 
L 298.064594 -121.745414 
L 298.063174 -122.81892 
L 298.06012 -123.892426 
L 298.05395 -124.965932 
L 298.042241 -126.039438 
L 298.021395 -127.112944 
L 297.986616 -128.18645 
L 297.932341 -129.259956 
L 297.853284 -130.333462 
L 297.746149 -131.406968 
L 297.611691 -132.480474 
L 297.456513 -133.55398 
L 297.293741 -134.627486 
L 297.141871 -135.700992 
L 297.021601 -136.774498 
L 296.951293 -137.848005 
L 296.942394 -138.921511 
L 296.99639 -139.995017 
L 297.104396 -141.068523 
L 297.249548 -142.142029 
L 297.411313 -143.215535 
L 297.570188 -144.289041 
L 297.711349 -145.362547 
L 297.826378 -146.436053 
L 297.913044 -147.509559 
L 298.218206 -147.509559 
L 298.218206 -147.509559 
L 298.304872 -146.436053 
L 298.419901 -145.362547 
L 298.561062 -144.289041 
L 298.719937 -143.215535 
L 298.881702 -142.142029 
L 299.026854 -141.068523 
L 299.13486 -139.995017 
L 299.188856 -138.921511 
L 299.179957 -137.848005 
L 299.109649 -136.774498 
L 298.989379 -135.700992 
L 298.837509 -134.627486 
L 298.674737 -133.55398 
L 298.519559 -132.480474 
L 298.385101 -131.406968 
L 298.277966 -130.333462 
L 298.198909 -129.259956 
L 298.144634 -128.18645 
L 298.109855 -127.112944 
L 298.089009 -126.039438 
L 298.0773 -124.965932 
L 298.07113 -123.892426 
L 298.068076 -122.81892 
L 298.066656 -121.745414 
L 298.066034 -120.671908 
L 298.065779 -119.598402 
L 298.065679 -118.524896 
L 298.065643 -117.45139 
L 298.065631 -116.377883 
L 298.065627 -115.304377 
L 298.065625 -114.230871 
L 298.065625 -113.157365 
L 298.065625 -112.083859 
L 298.065625 -111.010353 
L 298.065625 -109.936847 
L 298.065625 -108.863341 
L 298.065625 -107.789835 
L 298.065625 -106.716329 
L 298.065625 -105.642823 
L 298.065625 -104.569317 
L 298.065625 -103.495811 
L 298.065625 -102.422305 
L 298.065625 -101.348799 
L 298.065625 -100.275293 
L 298.065625 -99.201787 
L 298.065625 -98.128281 
L 298.065626 -97.054775 
L 298.065628 -95.981268 
L 298.065636 -94.907762 
L 298.065659 -93.834256 
L 298.065724 -92.76075 
L 298.065896 -91.687244 
L 298.06633 -90.613738 
L 298.067357 -89.540232 
L 298.06965 -88.466726 
L 298.074474 -87.39322 
L 298.084034 -86.319714 
L 298.101875 -85.246208 
L 298.133222 -84.172702 
L 298.185055 -83.099196 
L 298.265664 -82.02569 
L 298.383481 -80.952184 
L 298.545153 -79.878678 
L 298.753171 -78.805172 
L 299.003735 -77.731666 
L 299.28582 -76.65816 
L 299.582425 -75.584653 
L 299.874622 -74.511147 
L 300.148408 -73.437641 
L 300.403613 -72.364135 
L 300.663583 -71.290629 
L 300.984041 -70.217123 
L 301.459514 -69.143617 
L 302.225705 -68.070111 
L 303.456062 -66.996605 
L 305.350557 -65.923099 
L 308.114659 -64.849593 
L 311.927402 -63.776087 
L 316.899679 -62.702581 
L 323.027605 -61.629075 
L 330.14994 -60.555569 
L 337.921753 -59.482063 
L 345.81691 -58.408557 
L 353.168329 -57.335051 
L 359.24718 -56.261545 
L 363.371689 -55.188038 
L 365.025625 -54.114532 
L 363.959662 -53.041026 
L 360.248924 -51.96752 
L 354.288726 -50.894014 
L 346.726206 -49.820508 
L 338.343441 -48.747002 
L 329.921316 -47.673496 
L 322.117747 -46.59999 
L 315.387227 -45.526484 
L 309.954141 -44.452978 
L 305.835695 -43.379472 
L 302.897892 -42.305966 
L 300.923189 -41.23246 
z
" style="stroke: #3f3f3f; stroke-width: 1.5"/>
    </defs>
    <g clip-path="url(#p286cd53558)">
     <use xlink:href="#mb887cc9292" x="0" y="263.63625" style="fill: #e1812c; stroke: #3f3f3f; stroke-width: 1.5"/>
    </g>
   </g>
   <g id="matplotlib.axis_1">
    <g id="xtick_1">
     <g id="line2d_1">
      <defs>
       <path id="maa11c3ac31" d="M 0 0 
L 0 3.5 
" style="stroke: #000000; stroke-width: 0.8"/>
      </defs>
      <g>
       <use xlink:href="#maa11c3ac31" x="130.665625" y="239.758125" style="stroke: #000000; stroke-width: 0.8"/>
      </g>
     </g>
     <g id="text_1">
      <!-- GZoltar -->
      <g transform="translate(111.838281 254.356563)scale(0.1 -0.1)">
       <defs>
        <path id="DejaVuSans-47" d="M 3809 666 
L 3809 1919 
L 2778 1919 
L 2778 2438 
L 4434 2438 
L 4434 434 
Q 4069 175 3628 42 
Q 3188 -91 2688 -91 
Q 1594 -91 976 548 
Q 359 1188 359 2328 
Q 359 3472 976 4111 
Q 1594 4750 2688 4750 
Q 3144 4750 3555 4637 
Q 3966 4525 4313 4306 
L 4313 3634 
Q 3963 3931 3569 4081 
Q 3175 4231 2741 4231 
Q 1884 4231 1454 3753 
Q 1025 3275 1025 2328 
Q 1025 1384 1454 906 
Q 1884 428 2741 428 
Q 3075 428 3337 486 
Q 3600 544 3809 666 
z
" transform="scale(0.015625)"/>
        <path id="DejaVuSans-5a" d="M 359 4666 
L 4025 4666 
L 4025 4184 
L 1075 531 
L 4097 531 
L 4097 0 
L 288 0 
L 288 481 
L 3238 4134 
L 359 4134 
L 359 4666 
z
" transform="scale(0.015625)"/>
        <path id="DejaVuSans-6f" d="M 1959 3097 
Q 1497 3097 1228 2736 
Q 959 2375 959 1747 
Q 959 1119 1226 758 
Q 1494 397 1959 397 
Q 2419 397 2687 759 
Q 2956 1122 2956 1747 
Q 2956 2369 2687 2733 
Q 2419 3097 1959 3097 
z
M 1959 3584 
Q 2709 3584 3137 3096 
Q 3566 2609 3566 1747 
Q 3566 888 3137 398 
Q 2709 -91 1959 -91 
Q 1206 -91 779 398 
Q 353 888 353 1747 
Q 353 2609 779 3096 
Q 1206 3584 1959 3584 
z
" transform="scale(0.015625)"/>
        <path id="DejaVuSans-6c" d="M 603 4863 
L 1178 4863 
L 1178 0 
L 603 0 
L 603 4863 
z
" transform="scale(0.015625)"/>
        <path id="DejaVuSans-74" d="M 1172 4494 
L 1172 3500 
L 2356 3500 
L 2356 3053 
L 1172 3053 
L 1172 1153 
Q 1172 725 1289 603 
Q 1406 481 1766 481 
L 2356 481 
L 2356 0 
L 1766 0 
Q 1100 0 847 248 
Q 594 497 594 1153 
L 594 3053 
L 172 3053 
L 172 3500 
L 594 3500 
L 594 4494 
L 1172 4494 
z
" transform="scale(0.015625)"/>
        <path id="DejaVuSans-61" d="M 2194 1759 
Q 1497 1759 1228 1600 
Q 959 1441 959 1056 
Q 959 750 1161 570 
Q 1363 391 1709 391 
Q 2188 391 2477 730 
Q 2766 1069 2766 1631 
L 2766 1759 
L 2194 1759 
z
M 3341 1997 
L 3341 0 
L 2766 0 
L 2766 531 
Q 2569 213 2275 61 
Q 1981 -91 1556 -91 
Q 1019 -91 701 211 
Q 384 513 384 1019 
Q 384 1609 779 1909 
Q 1175 2209 1959 2209 
L 2766 2209 
L 2766 2266 
Q 2766 2663 2505 2880 
Q 2244 3097 1772 3097 
Q 1472 3097 1187 3025 
Q 903 2953 641 2809 
L 641 3341 
Q 956 3463 1253 3523 
Q 1550 3584 1831 3584 
Q 2591 3584 2966 3190 
Q 3341 2797 3341 1997 
z
" transform="scale(0.015625)"/>
        <path id="DejaVuSans-72" d="M 2631 2963 
Q 2534 3019 2420 3045 
Q 2306 3072 2169 3072 
Q 1681 3072 1420 2755 
Q 1159 2438 1159 1844 
L 1159 0 
L 581 0 
L 581 3500 
L 1159 3500 
L 1159 2956 
Q 1341 3275 1631 3429 
Q 1922 3584 2338 3584 
Q 2397 3584 2469 3576 
Q 2541 3569 2628 3553 
L 2631 2963 
z
" transform="scale(0.015625)"/>
       </defs>
       <use xlink:href="#DejaVuSans-47"/>
       <use xlink:href="#DejaVuSans-5a" x="77.490234"/>
       <use xlink:href="#DejaVuSans-6f" x="145.996094"/>
       <use xlink:href="#DejaVuSans-6c" x="207.177734"/>
       <use xlink:href="#DejaVuSans-74" x="234.960938"/>
       <use xlink:href="#DejaVuSans-61" x="274.169922"/>
       <use xlink:href="#DejaVuSans-72" x="335.449219"/>
      </g>
     </g>
    </g>
    <g id="xtick_2">
     <g id="line2d_2">
      <g>
       <use xlink:href="#maa11c3ac31" x="298.065625" y="239.758125" style="stroke: #000000; stroke-width: 0.8"/>
      </g>
     </g>
     <g id="text_2">
      <!-- Flacoco -->
      <g transform="translate(279.119531 254.356563)scale(0.1 -0.1)">
       <defs>
        <path id="DejaVuSans-46" d="M 628 4666 
L 3309 4666 
L 3309 4134 
L 1259 4134 
L 1259 2759 
L 3109 2759 
L 3109 2228 
L 1259 2228 
L 1259 0 
L 628 0 
L 628 4666 
z
" transform="scale(0.015625)"/>
        <path id="DejaVuSans-63" d="M 3122 3366 
L 3122 2828 
Q 2878 2963 2633 3030 
Q 2388 3097 2138 3097 
Q 1578 3097 1268 2742 
Q 959 2388 959 1747 
Q 959 1106 1268 751 
Q 1578 397 2138 397 
Q 2388 397 2633 464 
Q 2878 531 3122 666 
L 3122 134 
Q 2881 22 2623 -34 
Q 2366 -91 2075 -91 
Q 1284 -91 818 406 
Q 353 903 353 1747 
Q 353 2603 823 3093 
Q 1294 3584 2113 3584 
Q 2378 3584 2631 3529 
Q 2884 3475 3122 3366 
z
" transform="scale(0.015625)"/>
       </defs>
       <use xlink:href="#DejaVuSans-46"/>
       <use xlink:href="#DejaVuSans-6c" x="57.519531"/>
       <use xlink:href="#DejaVuSans-61" x="85.302734"/>
       <use xlink:href="#DejaVuSans-63" x="146.582031"/>
       <use xlink:href="#DejaVuSans-6f" x="201.5625"/>
       <use xlink:href="#DejaVuSans-63" x="262.744141"/>
       <use xlink:href="#DejaVuSans-6f" x="317.724609"/>
      </g>
     </g>
    </g>
   </g>
   <g id="matplotlib.axis_2">
    <g id="ytick_1">
     <g id="line2d_3">
      <defs>
       <path id="m0a53474bf6" d="M 0 0 
L -3.5 0 
" style="stroke: #000000; stroke-width: 0.8"/>
      </defs>
      <g>
       <use xlink:href="#m0a53474bf6" x="46.965625" y="214.513789" style="stroke: #000000; stroke-width: 0.8"/>
      </g>
     </g>
     <g id="text_3">
      <!-- 0 -->
      <g transform="translate(33.603125 218.313008)scale(0.1 -0.1)">
       <defs>
        <path id="DejaVuSans-30" d="M 2034 4250 
Q 1547 4250 1301 3770 
Q 1056 3291 1056 2328 
Q 1056 1369 1301 889 
Q 1547 409 2034 409 
Q 2525 409 2770 889 
Q 3016 1369 3016 2328 
Q 3016 3291 2770 3770 
Q 2525 4250 2034 4250 
z
M 2034 4750 
Q 2819 4750 3233 4129 
Q 3647 3509 3647 2328 
Q 3647 1150 3233 529 
Q 2819 -91 2034 -91 
Q 1250 -91 836 529 
Q 422 1150 422 2328 
Q 422 3509 836 4129 
Q 1250 4750 2034 4750 
z
" transform="scale(0.015625)"/>
       </defs>
       <use xlink:href="#DejaVuSans-30"/>
      </g>
     </g>
    </g>
    <g id="ytick_2">
     <g id="line2d_4">
      <g>
       <use xlink:href="#m0a53474bf6" x="46.965625" y="170.384363" style="stroke: #000000; stroke-width: 0.8"/>
      </g>
     </g>
     <g id="text_4">
      <!-- 100 -->
      <g transform="translate(20.878125 174.183582)scale(0.1 -0.1)">
       <defs>
        <path id="DejaVuSans-31" d="M 794 531 
L 1825 531 
L 1825 4091 
L 703 3866 
L 703 4441 
L 1819 4666 
L 2450 4666 
L 2450 531 
L 3481 531 
L 3481 0 
L 794 0 
L 794 531 
z
" transform="scale(0.015625)"/>
       </defs>
       <use xlink:href="#DejaVuSans-31"/>
       <use xlink:href="#DejaVuSans-30" x="63.623047"/>
       <use xlink:href="#DejaVuSans-30" x="127.246094"/>
      </g>
     </g>
    </g>
    <g id="ytick_3">
     <g id="line2d_5">
      <g>
       <use xlink:href="#m0a53474bf6" x="46.965625" y="126.254936" style="stroke: #000000; stroke-width: 0.8"/>
      </g>
     </g>
     <g id="text_5">
      <!-- 200 -->
      <g transform="translate(20.878125 130.054155)scale(0.1 -0.1)">
       <defs>
        <path id="DejaVuSans-32" d="M 1228 531 
L 3431 531 
L 3431 0 
L 469 0 
L 469 531 
Q 828 903 1448 1529 
Q 2069 2156 2228 2338 
Q 2531 2678 2651 2914 
Q 2772 3150 2772 3378 
Q 2772 3750 2511 3984 
Q 2250 4219 1831 4219 
Q 1534 4219 1204 4116 
Q 875 4013 500 3803 
L 500 4441 
Q 881 4594 1212 4672 
Q 1544 4750 1819 4750 
Q 2544 4750 2975 4387 
Q 3406 4025 3406 3419 
Q 3406 3131 3298 2873 
Q 3191 2616 2906 2266 
Q 2828 2175 2409 1742 
Q 1991 1309 1228 531 
z
" transform="scale(0.015625)"/>
       </defs>
       <use xlink:href="#DejaVuSans-32"/>
       <use xlink:href="#DejaVuSans-30" x="63.623047"/>
       <use xlink:href="#DejaVuSans-30" x="127.246094"/>
      </g>
     </g>
    </g>
    <g id="ytick_4">
     <g id="line2d_6">
      <g>
       <use xlink:href="#m0a53474bf6" x="46.965625" y="82.12551" style="stroke: #000000; stroke-width: 0.8"/>
      </g>
     </g>
     <g id="text_6">
      <!-- 300 -->
      <g transform="translate(20.878125 85.924729)scale(0.1 -0.1)">
       <defs>
        <path id="DejaVuSans-33" d="M 2597 2516 
Q 3050 2419 3304 2112 
Q 3559 1806 3559 1356 
Q 3559 666 3084 287 
Q 2609 -91 1734 -91 
Q 1441 -91 1130 -33 
Q 819 25 488 141 
L 488 750 
Q 750 597 1062 519 
Q 1375 441 1716 441 
Q 2309 441 2620 675 
Q 2931 909 2931 1356 
Q 2931 1769 2642 2001 
Q 2353 2234 1838 2234 
L 1294 2234 
L 1294 2753 
L 1863 2753 
Q 2328 2753 2575 2939 
Q 2822 3125 2822 3475 
Q 2822 3834 2567 4026 
Q 2313 4219 1838 4219 
Q 1578 4219 1281 4162 
Q 984 4106 628 3988 
L 628 4550 
Q 988 4650 1302 4700 
Q 1616 4750 1894 4750 
Q 2613 4750 3031 4423 
Q 3450 4097 3450 3541 
Q 3450 3153 3228 2886 
Q 3006 2619 2597 2516 
z
" transform="scale(0.015625)"/>
       </defs>
       <use xlink:href="#DejaVuSans-33"/>
       <use xlink:href="#DejaVuSans-30" x="63.623047"/>
       <use xlink:href="#DejaVuSans-30" x="127.246094"/>
      </g>
     </g>
    </g>
    <g id="ytick_5">
     <g id="line2d_7">
      <g>
       <use xlink:href="#m0a53474bf6" x="46.965625" y="37.996084" style="stroke: #000000; stroke-width: 0.8"/>
      </g>
     </g>
     <g id="text_7">
      <!-- 400 -->
      <g transform="translate(20.878125 41.795302)scale(0.1 -0.1)">
       <defs>
        <path id="DejaVuSans-34" d="M 2419 4116 
L 825 1625 
L 2419 1625 
L 2419 4116 
z
M 2253 4666 
L 3047 4666 
L 3047 1625 
L 3713 1625 
L 3713 1100 
L 3047 1100 
L 3047 0 
L 2419 0 
L 2419 1100 
L 313 1100 
L 313 1709 
L 2253 4666 
z
" transform="scale(0.015625)"/>
       </defs>
       <use xlink:href="#DejaVuSans-34"/>
       <use xlink:href="#DejaVuSans-30" x="63.623047"/>
       <use xlink:href="#DejaVuSans-30" x="127.246094"/>
      </g>
     </g>
    </g>
    <g id="text_8">
     <!-- Execution Time (s) -->
     <g transform="translate(14.798438 177.490469)rotate(-90)scale(0.1 -0.1)">
      <defs>
       <path id="DejaVuSans-45" d="M 628 4666 
L 3578 4666 
L 3578 4134 
L 1259 4134 
L 1259 2753 
L 3481 2753 
L 3481 2222 
L 1259 2222 
L 1259 531 
L 3634 531 
L 3634 0 
L 628 0 
L 628 4666 
z
" transform="scale(0.015625)"/>
       <path id="DejaVuSans-78" d="M 3513 3500 
L 2247 1797 
L 3578 0 
L 2900 0 
L 1881 1375 
L 863 0 
L 184 0 
L 1544 1831 
L 300 3500 
L 978 3500 
L 1906 2253 
L 2834 3500 
L 3513 3500 
z
" transform="scale(0.015625)"/>
       <path id="DejaVuSans-65" d="M 3597 1894 
L 3597 1613 
L 953 1613 
Q 991 1019 1311 708 
Q 1631 397 2203 397 
Q 2534 397 2845 478 
Q 3156 559 3463 722 
L 3463 178 
Q 3153 47 2828 -22 
Q 2503 -91 2169 -91 
Q 1331 -91 842 396 
Q 353 884 353 1716 
Q 353 2575 817 3079 
Q 1281 3584 2069 3584 
Q 2775 3584 3186 3129 
Q 3597 2675 3597 1894 
z
M 3022 2063 
Q 3016 2534 2758 2815 
Q 2500 3097 2075 3097 
Q 1594 3097 1305 2825 
Q 1016 2553 972 2059 
L 3022 2063 
z
" transform="scale(0.015625)"/>
       <path id="DejaVuSans-75" d="M 544 1381 
L 544 3500 
L 1119 3500 
L 1119 1403 
Q 1119 906 1312 657 
Q 1506 409 1894 409 
Q 2359 409 2629 706 
Q 2900 1003 2900 1516 
L 2900 3500 
L 3475 3500 
L 3475 0 
L 2900 0 
L 2900 538 
Q 2691 219 2414 64 
Q 2138 -91 1772 -91 
Q 1169 -91 856 284 
Q 544 659 544 1381 
z
M 1991 3584 
L 1991 3584 
z
" transform="scale(0.015625)"/>
       <path id="DejaVuSans-69" d="M 603 3500 
L 1178 3500 
L 1178 0 
L 603 0 
L 603 3500 
z
M 603 4863 
L 1178 4863 
L 1178 4134 
L 603 4134 
L 603 4863 
z
" transform="scale(0.015625)"/>
       <path id="DejaVuSans-6e" d="M 3513 2113 
L 3513 0 
L 2938 0 
L 2938 2094 
Q 2938 2591 2744 2837 
Q 2550 3084 2163 3084 
Q 1697 3084 1428 2787 
Q 1159 2491 1159 1978 
L 1159 0 
L 581 0 
L 581 3500 
L 1159 3500 
L 1159 2956 
Q 1366 3272 1645 3428 
Q 1925 3584 2291 3584 
Q 2894 3584 3203 3211 
Q 3513 2838 3513 2113 
z
" transform="scale(0.015625)"/>
       <path id="DejaVuSans-20" transform="scale(0.015625)"/>
       <path id="DejaVuSans-54" d="M -19 4666 
L 3928 4666 
L 3928 4134 
L 2272 4134 
L 2272 0 
L 1638 0 
L 1638 4134 
L -19 4134 
L -19 4666 
z
" transform="scale(0.015625)"/>
       <path id="DejaVuSans-6d" d="M 3328 2828 
Q 3544 3216 3844 3400 
Q 4144 3584 4550 3584 
Q 5097 3584 5394 3201 
Q 5691 2819 5691 2113 
L 5691 0 
L 5113 0 
L 5113 2094 
Q 5113 2597 4934 2840 
Q 4756 3084 4391 3084 
Q 3944 3084 3684 2787 
Q 3425 2491 3425 1978 
L 3425 0 
L 2847 0 
L 2847 2094 
Q 2847 2600 2669 2842 
Q 2491 3084 2119 3084 
Q 1678 3084 1418 2786 
Q 1159 2488 1159 1978 
L 1159 0 
L 581 0 
L 581 3500 
L 1159 3500 
L 1159 2956 
Q 1356 3278 1631 3431 
Q 1906 3584 2284 3584 
Q 2666 3584 2933 3390 
Q 3200 3197 3328 2828 
z
" transform="scale(0.015625)"/>
       <path id="DejaVuSans-28" d="M 1984 4856 
Q 1566 4138 1362 3434 
Q 1159 2731 1159 2009 
Q 1159 1288 1364 580 
Q 1569 -128 1984 -844 
L 1484 -844 
Q 1016 -109 783 600 
Q 550 1309 550 2009 
Q 550 2706 781 3412 
Q 1013 4119 1484 4856 
L 1984 4856 
z
" transform="scale(0.015625)"/>
       <path id="DejaVuSans-73" d="M 2834 3397 
L 2834 2853 
Q 2591 2978 2328 3040 
Q 2066 3103 1784 3103 
Q 1356 3103 1142 2972 
Q 928 2841 928 2578 
Q 928 2378 1081 2264 
Q 1234 2150 1697 2047 
L 1894 2003 
Q 2506 1872 2764 1633 
Q 3022 1394 3022 966 
Q 3022 478 2636 193 
Q 2250 -91 1575 -91 
Q 1294 -91 989 -36 
Q 684 19 347 128 
L 347 722 
Q 666 556 975 473 
Q 1284 391 1588 391 
Q 1994 391 2212 530 
Q 2431 669 2431 922 
Q 2431 1156 2273 1281 
Q 2116 1406 1581 1522 
L 1381 1569 
Q 847 1681 609 1914 
Q 372 2147 372 2553 
Q 372 3047 722 3315 
Q 1072 3584 1716 3584 
Q 2034 3584 2315 3537 
Q 2597 3491 2834 3397 
z
" transform="scale(0.015625)"/>
       <path id="DejaVuSans-29" d="M 513 4856 
L 1013 4856 
Q 1481 4119 1714 3412 
Q 1947 2706 1947 2009 
Q 1947 1309 1714 600 
Q 1481 -109 1013 -844 
L 513 -844 
Q 928 -128 1133 580 
Q 1338 1288 1338 2009 
Q 1338 2731 1133 3434 
Q 928 4138 513 4856 
z
" transform="scale(0.015625)"/>
      </defs>
      <use xlink:href="#DejaVuSans-45"/>
      <use xlink:href="#DejaVuSans-78" x="63.183594"/>
      <use xlink:href="#DejaVuSans-65" x="119.238281"/>
      <use xlink:href="#DejaVuSans-63" x="180.761719"/>
      <use xlink:href="#DejaVuSans-75" x="235.742188"/>
      <use xlink:href="#DejaVuSans-74" x="299.121094"/>
      <use xlink:href="#DejaVuSans-69" x="338.330078"/>
      <use xlink:href="#DejaVuSans-6f" x="366.113281"/>
      <use xlink:href="#DejaVuSans-6e" x="427.294922"/>
      <use xlink:href="#DejaVuSans-20" x="490.673828"/>
      <use xlink:href="#DejaVuSans-54" x="522.460938"/>
      <use xlink:href="#DejaVuSans-69" x="580.419922"/>
      <use xlink:href="#DejaVuSans-6d" x="608.203125"/>
      <use xlink:href="#DejaVuSans-65" x="705.615234"/>
      <use xlink:href="#DejaVuSans-20" x="767.138672"/>
      <use xlink:href="#DejaVuSans-28" x="798.925781"/>
      <use xlink:href="#DejaVuSans-73" x="837.939453"/>
      <use xlink:href="#DejaVuSans-29" x="890.039062"/>
     </g>
    </g>
   </g>
   <g id="line2d_8">
    <path d="M 130.665625 212.817454 
L 130.665625 172.011415 
" clip-path="url(#p286cd53558)" style="fill: none; stroke: #3f3f3f; stroke-width: 1.5; stroke-linecap: square"/>
   </g>
   <g id="line2d_9">
    <path d="M 130.665625 210.650258 
L 130.665625 190.845413 
" clip-path="url(#p286cd53558)" style="fill: none; stroke: #3f3f3f; stroke-width: 4.5; stroke-linecap: square"/>
   </g>
   <g id="line2d_10">
    <path d="M 298.065625 213.428205 
L 298.065625 200.564036 
" clip-path="url(#p286cd53558)" style="fill: none; stroke: #3f3f3f; stroke-width: 1.5; stroke-linecap: square"/>
   </g>
   <g id="line2d_11">
    <path d="M 298.065625 211.242916 
L 298.065625 206.538278 
" clip-path="url(#p286cd53558)" style="fill: none; stroke: #3f3f3f; stroke-width: 4.5; stroke-linecap: square"/>
   </g>
   <g id="patch_3">
    <path d="M 46.965625 239.758125 
L 46.965625 22.318125 
" style="fill: none; stroke: #000000; stroke-width: 0.8; stroke-linejoin: miter; stroke-linecap: square"/>
   </g>
   <g id="patch_4">
    <path d="M 381.765625 239.758125 
L 381.765625 22.318125 
" style="fill: none; stroke: #000000; stroke-width: 0.8; stroke-linejoin: miter; stroke-linecap: square"/>
   </g>
   <g id="patch_5">
    <path d="M 46.965625 239.758125 
L 381.765625 239.758125 
" style="fill: none; stroke: #000000; stroke-width: 0.8; stroke-linejoin: miter; stroke-linecap: square"/>
   </g>
   <g id="patch_6">
    <path d="M 46.965625 22.318125 
L 381.765625 22.318125 
" style="fill: none; stroke: #000000; stroke-width: 0.8; stroke-linejoin: miter; stroke-linecap: square"/>
   </g>
   <g id="PathCollection_1">
    <defs>
     <path id="m46c2f806e1" d="M 0 1.5 
C 0.397805 1.5 0.77937 1.341951 1.06066 1.06066 
C 1.341951 0.77937 1.5 0.397805 1.5 0 
C 1.5 -0.397805 1.341951 -0.77937 1.06066 -1.06066 
C 0.77937 -1.341951 0.397805 -1.5 0 -1.5 
C -0.397805 -1.5 -0.77937 -1.341951 -1.06066 -1.06066 
C -1.341951 -0.77937 -1.5 -0.397805 -1.5 0 
C -1.5 0.397805 -1.341951 0.77937 -1.06066 1.06066 
C -0.77937 1.341951 -0.397805 1.5 0 1.5 
z
" style="stroke: #3f3f3f"/>
    </defs>
    <g clip-path="url(#p286cd53558)">
     <use xlink:href="#m46c2f806e1" x="130.665625" y="194.977251" style="fill: #ffffff; stroke: #3f3f3f"/>
    </g>
   </g>
   <g id="PathCollection_2">
    <g clip-path="url(#p286cd53558)">
     <use xlink:href="#m46c2f806e1" x="298.065625" y="209.501128" style="fill: #ffffff; stroke: #3f3f3f"/>
    </g>
   </g>
   <g id="text_9">
    <!-- Execution time (s) per fault localization (target=java8) -->
    <g transform="translate(50.232813 16.318125)scale(0.12 -0.12)">
     <defs>
      <path id="DejaVuSans-70" d="M 1159 525 
L 1159 -1331 
L 581 -1331 
L 581 3500 
L 1159 3500 
L 1159 2969 
Q 1341 3281 1617 3432 
Q 1894 3584 2278 3584 
Q 2916 3584 3314 3078 
Q 3713 2572 3713 1747 
Q 3713 922 3314 415 
Q 2916 -91 2278 -91 
Q 1894 -91 1617 61 
Q 1341 213 1159 525 
z
M 3116 1747 
Q 3116 2381 2855 2742 
Q 2594 3103 2138 3103 
Q 1681 3103 1420 2742 
Q 1159 2381 1159 1747 
Q 1159 1113 1420 752 
Q 1681 391 2138 391 
Q 2594 391 2855 752 
Q 3116 1113 3116 1747 
z
" transform="scale(0.015625)"/>
      <path id="DejaVuSans-66" d="M 2375 4863 
L 2375 4384 
L 1825 4384 
Q 1516 4384 1395 4259 
Q 1275 4134 1275 3809 
L 1275 3500 
L 2222 3500 
L 2222 3053 
L 1275 3053 
L 1275 0 
L 697 0 
L 697 3053 
L 147 3053 
L 147 3500 
L 697 3500 
L 697 3744 
Q 697 4328 969 4595 
Q 1241 4863 1831 4863 
L 2375 4863 
z
" transform="scale(0.015625)"/>
      <path id="DejaVuSans-7a" d="M 353 3500 
L 3084 3500 
L 3084 2975 
L 922 459 
L 3084 459 
L 3084 0 
L 275 0 
L 275 525 
L 2438 3041 
L 353 3041 
L 353 3500 
z
" transform="scale(0.015625)"/>
      <path id="DejaVuSans-67" d="M 2906 1791 
Q 2906 2416 2648 2759 
Q 2391 3103 1925 3103 
Q 1463 3103 1205 2759 
Q 947 2416 947 1791 
Q 947 1169 1205 825 
Q 1463 481 1925 481 
Q 2391 481 2648 825 
Q 2906 1169 2906 1791 
z
M 3481 434 
Q 3481 -459 3084 -895 
Q 2688 -1331 1869 -1331 
Q 1566 -1331 1297 -1286 
Q 1028 -1241 775 -1147 
L 775 -588 
Q 1028 -725 1275 -790 
Q 1522 -856 1778 -856 
Q 2344 -856 2625 -561 
Q 2906 -266 2906 331 
L 2906 616 
Q 2728 306 2450 153 
Q 2172 0 1784 0 
Q 1141 0 747 490 
Q 353 981 353 1791 
Q 353 2603 747 3093 
Q 1141 3584 1784 3584 
Q 2172 3584 2450 3431 
Q 2728 3278 2906 2969 
L 2906 3500 
L 3481 3500 
L 3481 434 
z
" transform="scale(0.015625)"/>
      <path id="DejaVuSans-3d" d="M 678 2906 
L 4684 2906 
L 4684 2381 
L 678 2381 
L 678 2906 
z
M 678 1631 
L 4684 1631 
L 4684 1100 
L 678 1100 
L 678 1631 
z
" transform="scale(0.015625)"/>
      <path id="DejaVuSans-6a" d="M 603 3500 
L 1178 3500 
L 1178 -63 
Q 1178 -731 923 -1031 
Q 669 -1331 103 -1331 
L -116 -1331 
L -116 -844 
L 38 -844 
Q 366 -844 484 -692 
Q 603 -541 603 -63 
L 603 3500 
z
M 603 4863 
L 1178 4863 
L 1178 4134 
L 603 4134 
L 603 4863 
z
" transform="scale(0.015625)"/>
      <path id="DejaVuSans-76" d="M 191 3500 
L 800 3500 
L 1894 563 
L 2988 3500 
L 3597 3500 
L 2284 0 
L 1503 0 
L 191 3500 
z
" transform="scale(0.015625)"/>
      <path id="DejaVuSans-38" d="M 2034 2216 
Q 1584 2216 1326 1975 
Q 1069 1734 1069 1313 
Q 1069 891 1326 650 
Q 1584 409 2034 409 
Q 2484 409 2743 651 
Q 3003 894 3003 1313 
Q 3003 1734 2745 1975 
Q 2488 2216 2034 2216 
z
M 1403 2484 
Q 997 2584 770 2862 
Q 544 3141 544 3541 
Q 544 4100 942 4425 
Q 1341 4750 2034 4750 
Q 2731 4750 3128 4425 
Q 3525 4100 3525 3541 
Q 3525 3141 3298 2862 
Q 3072 2584 2669 2484 
Q 3125 2378 3379 2068 
Q 3634 1759 3634 1313 
Q 3634 634 3220 271 
Q 2806 -91 2034 -91 
Q 1263 -91 848 271 
Q 434 634 434 1313 
Q 434 1759 690 2068 
Q 947 2378 1403 2484 
z
M 1172 3481 
Q 1172 3119 1398 2916 
Q 1625 2713 2034 2713 
Q 2441 2713 2670 2916 
Q 2900 3119 2900 3481 
Q 2900 3844 2670 4047 
Q 2441 4250 2034 4250 
Q 1625 4250 1398 4047 
Q 1172 3844 1172 3481 
z
" transform="scale(0.015625)"/>
     </defs>
     <use xlink:href="#DejaVuSans-45"/>
     <use xlink:href="#DejaVuSans-78" x="63.183594"/>
     <use xlink:href="#DejaVuSans-65" x="119.238281"/>
     <use xlink:href="#DejaVuSans-63" x="180.761719"/>
     <use xlink:href="#DejaVuSans-75" x="235.742188"/>
     <use xlink:href="#DejaVuSans-74" x="299.121094"/>
     <use xlink:href="#DejaVuSans-69" x="338.330078"/>
     <use xlink:href="#DejaVuSans-6f" x="366.113281"/>
     <use xlink:href="#DejaVuSans-6e" x="427.294922"/>
     <use xlink:href="#DejaVuSans-20" x="490.673828"/>
     <use xlink:href="#DejaVuSans-74" x="522.460938"/>
     <use xlink:href="#DejaVuSans-69" x="561.669922"/>
     <use xlink:href="#DejaVuSans-6d" x="589.453125"/>
     <use xlink:href="#DejaVuSans-65" x="686.865234"/>
     <use xlink:href="#DejaVuSans-20" x="748.388672"/>
     <use xlink:href="#DejaVuSans-28" x="780.175781"/>
     <use xlink:href="#DejaVuSans-73" x="819.189453"/>
     <use xlink:href="#DejaVuSans-29" x="871.289062"/>
     <use xlink:href="#DejaVuSans-20" x="910.302734"/>
     <use xlink:href="#DejaVuSans-70" x="942.089844"/>
     <use xlink:href="#DejaVuSans-65" x="1005.566406"/>
     <use xlink:href="#DejaVuSans-72" x="1067.089844"/>
     <use xlink:href="#DejaVuSans-20" x="1108.203125"/>
     <use xlink:href="#DejaVuSans-66" x="1139.990234"/>
     <use xlink:href="#DejaVuSans-61" x="1175.195312"/>
     <use xlink:href="#DejaVuSans-75" x="1236.474609"/>
     <use xlink:href="#DejaVuSans-6c" x="1299.853516"/>
     <use xlink:href="#DejaVuSans-74" x="1327.636719"/>
     <use xlink:href="#DejaVuSans-20" x="1366.845703"/>
     <use xlink:href="#DejaVuSans-6c" x="1398.632812"/>
     <use xlink:href="#DejaVuSans-6f" x="1426.416016"/>
     <use xlink:href="#DejaVuSans-63" x="1487.597656"/>
     <use xlink:href="#DejaVuSans-61" x="1542.578125"/>
     <use xlink:href="#DejaVuSans-6c" x="1603.857422"/>
     <use xlink:href="#DejaVuSans-69" x="1631.640625"/>
     <use xlink:href="#DejaVuSans-7a" x="1659.423828"/>
     <use xlink:href="#DejaVuSans-61" x="1711.914062"/>
     <use xlink:href="#DejaVuSans-74" x="1773.193359"/>
     <use xlink:href="#DejaVuSans-69" x="1812.402344"/>
     <use xlink:href="#DejaVuSans-6f" x="1840.185547"/>
     <use xlink:href="#DejaVuSans-6e" x="1901.367188"/>
     <use xlink:href="#DejaVuSans-20" x="1964.746094"/>
     <use xlink:href="#DejaVuSans-28" x="1996.533203"/>
     <use xlink:href="#DejaVuSans-74" x="2035.546875"/>
     <use xlink:href="#DejaVuSans-61" x="2074.755859"/>
     <use xlink:href="#DejaVuSans-72" x="2136.035156"/>
     <use xlink:href="#DejaVuSans-67" x="2175.398438"/>
     <use xlink:href="#DejaVuSans-65" x="2238.875"/>
     <use xlink:href="#DejaVuSans-74" x="2300.398438"/>
     <use xlink:href="#DejaVuSans-3d" x="2339.607422"/>
     <use xlink:href="#DejaVuSans-6a" x="2423.396484"/>
     <use xlink:href="#DejaVuSans-61" x="2451.179688"/>
     <use xlink:href="#DejaVuSans-76" x="2512.458984"/>
     <use xlink:href="#DejaVuSans-61" x="2571.638672"/>
     <use xlink:href="#DejaVuSans-38" x="2632.917969"/>
     <use xlink:href="#DejaVuSans-29" x="2696.541016"/>
    </g>
   </g>
  </g>
 </g>
 <defs>
  <clipPath id="p286cd53558">
   <rect x="46.965625" y="22.318125" width="334.8" height="217.44"/>
  </clipPath>
 </defs>
</svg>
