<?xml version="1.0" encoding="utf-8" standalone="no"?>
<!DOCTYPE svg PUBLIC "-//W3C//DTD SVG 1.1//EN"
  "http://www.w3.org/Graphics/SVG/1.1/DTD/svg11.dtd">
<svg xmlns:xlink="http://www.w3.org/1999/xlink" width="389.515937pt" height="263.63625pt" viewBox="0 0 389.515937 263.63625" xmlns="http://www.w3.org/2000/svg" version="1.1">
 <metadata>
  <rdf:RDF xmlns:dc="http://purl.org/dc/elements/1.1/" xmlns:cc="http://creativecommons.org/ns#" xmlns:rdf="http://www.w3.org/1999/02/22-rdf-syntax-ns#">
   <cc:Work>
    <dc:type rdf:resource="http://purl.org/dc/dcmitype/StillImage"/>
    <dc:date>2022-10-10T10:58:33.304416</dc:date>
    <dc:format>image/svg+xml</dc:format>
    <dc:creator>
     <cc:Agent>
      <dc:title>Matplotlib v3.5.2, https://matplotlib.org/</dc:title>
     </cc:Agent>
    </dc:creator>
   </cc:Work>
  </rdf:RDF>
 </metadata>
 <defs>
  <style type="text/css">*{stroke-linejoin: round; stroke-linecap: butt}</style>
 </defs>
 <g id="figure_1">
  <g id="patch_1">
   <path d="M 0 263.63625 
L 389.515937 263.63625 
L 389.515937 0 
L 0 0 
L 0 263.63625 
z
" style="fill: none"/>
  </g>
  <g id="axes_1">
   <g id="patch_2">
    <path d="M 46.965625 239.758125 
L 381.765625 239.758125 
L 381.765625 22.318125 
L 46.965625 22.318125 
z
" style="fill: #ffffff"/>
   </g>
   <g id="PolyCollection_1">
    <defs>
     <path id="ma4e8541fab" d="M 131.740996 -33.761761 
L 129.590254 -33.761761 
L 129.051878 -35.758456 
L 128.329604 -37.75515 
L 127.401948 -39.751844 
L 126.261953 -41.748538 
L 124.922217 -43.745232 
L 123.417156 -45.741927 
L 121.801141 -47.738621 
L 120.141952 -49.735315 
L 118.510321 -51.732009 
L 116.967597 -53.728704 
L 115.554503 -55.725398 
L 114.284085 -57.722092 
L 113.141089 -59.718786 
L 112.088449 -61.71548 
L 111.079672 -63.712175 
L 110.074259 -65.708869 
L 109.052462 -67.705563 
L 108.025755 -69.702257 
L 107.040429 -71.698951 
L 106.173346 -73.695646 
L 105.520654 -75.69234 
L 105.181792 -77.689034 
L 105.242064 -79.685728 
L 105.757275 -81.682423 
L 106.74336 -83.679117 
L 108.172853 -85.675811 
L 109.978521 -87.672505 
L 112.063055 -89.669199 
L 114.312552 -91.665894 
L 116.610994 -93.662588 
L 118.853072 -95.659282 
L 120.953426 -97.655976 
L 122.851449 -99.65267 
L 124.511831 -101.649365 
L 125.921834 -103.646059 
L 127.086641 -105.642753 
L 128.024067 -107.639447 
L 128.759616 -109.636142 
L 129.3224 -111.632836 
L 129.742111 -113.62953 
L 130.046942 -115.626224 
L 130.2623 -117.622918 
L 130.410095 -119.619613 
L 130.508485 -121.616307 
L 130.571937 -123.613001 
L 130.611527 -125.609695 
L 130.635399 -127.606389 
L 130.649298 -129.603084 
L 130.657104 -131.599778 
L 130.661331 -133.596472 
L 130.663537 -135.593166 
L 130.664645 -137.589861 
L 130.665182 -139.586555 
L 130.665432 -141.583249 
L 130.665544 -143.579943 
L 130.665592 -145.576637 
L 130.665612 -147.573332 
L 130.66562 -149.570026 
L 130.665623 -151.56672 
L 130.665624 -153.563414 
L 130.665623 -155.560108 
L 130.665619 -157.556803 
L 130.665611 -159.553497 
L 130.66559 -161.550191 
L 130.665542 -163.546885 
L 130.665437 -165.54358 
L 130.665215 -167.540274 
L 130.664762 -169.536968 
L 130.663874 -171.533662 
L 130.662205 -173.530356 
L 130.659191 -175.527051 
L 130.653961 -177.523745 
L 130.645253 -179.520439 
L 130.631343 -181.517133 
L 130.610035 -183.513827 
L 130.57876 -185.510522 
L 130.534816 -187.507216 
L 130.475778 -189.50391 
L 130.400065 -191.500604 
L 130.307574 -193.497299 
L 130.200286 -195.493993 
L 130.08264 -197.490687 
L 129.961537 -199.487381 
L 129.845852 -201.484075 
L 129.74545 -203.48077 
L 129.669837 -205.477464 
L 129.626686 -207.474158 
L 129.620559 -209.470852 
L 129.652114 -211.467546 
L 129.717989 -213.464241 
L 129.811391 -215.460935 
L 129.923246 -217.457629 
L 130.043646 -219.454323 
L 130.163267 -221.451018 
L 130.274496 -223.447712 
L 130.372079 -225.444406 
L 130.453271 -227.4411 
L 130.517561 -229.437794 
L 130.566126 -231.434489 
L 130.765124 -231.434489 
L 130.765124 -231.434489 
L 130.813689 -229.437794 
L 130.877979 -227.4411 
L 130.959171 -225.444406 
L 131.056754 -223.447712 
L 131.167983 -221.451018 
L 131.287604 -219.454323 
L 131.408004 -217.457629 
L 131.519859 -215.460935 
L 131.613261 -213.464241 
L 131.679136 -211.467546 
L 131.710691 -209.470852 
L 131.704564 -207.474158 
L 131.661413 -205.477464 
L 131.5858 -203.48077 
L 131.485398 -201.484075 
L 131.369713 -199.487381 
L 131.24861 -197.490687 
L 131.130964 -195.493993 
L 131.023676 -193.497299 
L 130.931185 -191.500604 
L 130.855472 -189.50391 
L 130.796434 -187.507216 
L 130.75249 -185.510522 
L 130.721215 -183.513827 
L 130.699907 -181.517133 
L 130.685997 -179.520439 
L 130.677289 -177.523745 
L 130.672059 -175.527051 
L 130.669045 -173.530356 
L 130.667376 -171.533662 
L 130.666488 -169.536968 
L 130.666035 -167.540274 
L 130.665813 -165.54358 
L 130.665708 -163.546885 
L 130.66566 -161.550191 
L 130.665639 -159.553497 
L 130.665631 -157.556803 
L 130.665627 -155.560108 
L 130.665626 -153.563414 
L 130.665627 -151.56672 
L 130.66563 -149.570026 
L 130.665638 -147.573332 
L 130.665658 -145.576637 
L 130.665706 -143.579943 
L 130.665818 -141.583249 
L 130.666068 -139.586555 
L 130.666605 -137.589861 
L 130.667713 -135.593166 
L 130.669919 -133.596472 
L 130.674146 -131.599778 
L 130.681952 -129.603084 
L 130.695851 -127.606389 
L 130.719723 -125.609695 
L 130.759313 -123.613001 
L 130.822765 -121.616307 
L 130.921155 -119.619613 
L 131.06895 -117.622918 
L 131.284308 -115.626224 
L 131.589139 -113.62953 
L 132.00885 -111.632836 
L 132.571634 -109.636142 
L 133.307183 -107.639447 
L 134.244609 -105.642753 
L 135.409416 -103.646059 
L 136.819419 -101.649365 
L 138.479801 -99.65267 
L 140.377824 -97.655976 
L 142.478178 -95.659282 
L 144.720256 -93.662588 
L 147.018698 -91.665894 
L 149.268195 -89.669199 
L 151.352729 -87.672505 
L 153.158397 -85.675811 
L 154.58789 -83.679117 
L 155.573975 -81.682423 
L 156.089186 -79.685728 
L 156.149458 -77.689034 
L 155.810596 -75.69234 
L 155.157904 -73.695646 
L 154.290821 -71.698951 
L 153.305495 -69.702257 
L 152.278788 -67.705563 
L 151.256991 -65.708869 
L 150.251578 -63.712175 
L 149.242801 -61.71548 
L 148.190161 -59.718786 
L 147.047165 -57.722092 
L 145.776747 -55.725398 
L 144.363653 -53.728704 
L 142.820929 -51.732009 
L 141.189298 -49.735315 
L 139.530109 -47.738621 
L 137.914094 -45.741927 
L 136.409033 -43.745232 
L 135.069297 -41.748538 
L 133.929302 -39.751844 
L 133.001646 -37.75515 
L 132.279372 -35.758456 
L 131.740996 -33.761761 
z
" style="stroke: #3f3f3f; stroke-width: 1.5"/>
    </defs>
    <g clip-path="url(#pd888901fe5)">
     <use xlink:href="#ma4e8541fab" x="0" y="263.63625" style="fill: #3274a1; stroke: #3f3f3f; stroke-width: 1.5"/>
    </g>
   </g>
   <g id="PolyCollection_2">
    <defs>
     <path id="md69d2dc964" d="M 300.251846 -42.187033 
L 295.879404 -42.187033 
L 294.560722 -43.295094 
L 292.643595 -44.403155 
L 289.970374 -45.511216 
L 286.398738 -46.619278 
L 281.832377 -47.727339 
L 276.256056 -48.8354 
L 269.768454 -49.943461 
L 262.604208 -51.051522 
L 255.136464 -52.159583 
L 247.853768 -53.267645 
L 241.310253 -54.375706 
L 236.054789 -55.483767 
L 232.551187 -56.591828 
L 231.105625 -57.699889 
L 231.817388 -58.807951 
L 234.564446 -59.916012 
L 239.027317 -61.024073 
L 244.745496 -62.132134 
L 251.193176 -63.240195 
L 257.857367 -64.348256 
L 264.302643 -65.456318 
L 270.211802 -66.564379 
L 275.398926 -67.67244 
L 279.798089 -68.780501 
L 283.435702 -69.888562 
L 286.396121 -70.996623 
L 288.789067 -72.104685 
L 290.724546 -73.212746 
L 292.297578 -74.320807 
L 293.582137 -75.428868 
L 294.63191 -76.536929 
L 295.484852 -77.644991 
L 296.168838 -78.753052 
L 296.706539 -79.861113 
L 297.118623 -80.969174 
L 297.425211 -82.077235 
L 297.645974 -83.185296 
L 297.799497 -84.293358 
L 297.902456 -85.401419 
L 297.96898 -86.50948 
L 298.010361 -87.617541 
L 298.035133 -88.725602 
L 298.049398 -89.833664 
L 298.0573 -90.941725 
L 298.061509 -92.049786 
L 298.063664 -93.157847 
L 298.064725 -94.265908 
L 298.065227 -95.373969 
L 298.065456 -96.482031 
L 298.065556 -97.590092 
L 298.065598 -98.698153 
L 298.065615 -99.806214 
L 298.065621 -100.914275 
L 298.065624 -102.022336 
L 298.065625 -103.130398 
L 298.065625 -104.238459 
L 298.065625 -105.34652 
L 298.065625 -106.454581 
L 298.065625 -107.562642 
L 298.065625 -108.670704 
L 298.065624 -109.778765 
L 298.065623 -110.886826 
L 298.065618 -111.994887 
L 298.065607 -113.102948 
L 298.065578 -114.211009 
L 298.065511 -115.319071 
L 298.065356 -116.427132 
L 298.065014 -117.535193 
L 298.064294 -118.643254 
L 298.062838 -119.751315 
L 298.060015 -120.859377 
L 298.054771 -121.967438 
L 298.04544 -123.075499 
L 298.029542 -124.18356 
L 298.003623 -125.291621 
L 297.963211 -126.399682 
L 297.903005 -127.507744 
L 297.817393 -128.615805 
L 297.701361 -129.723866 
L 297.551746 -130.831927 
L 297.368681 -131.939988 
L 297.156896 -133.048049 
L 296.926488 -134.156111 
L 296.692759 -135.264172 
L 296.4749 -136.372233 
L 296.293557 -137.480294 
L 296.167668 -138.588355 
L 296.111219 -139.696417 
L 296.13069 -140.804478 
L 296.223832 -141.912539 
L 296.380093 -143.0206 
L 296.582585 -144.128661 
L 296.811083 -145.236722 
L 297.045319 -146.344784 
L 297.267844 -147.452845 
L 297.465918 -148.560906 
L 297.632224 -149.668967 
L 297.764511 -150.777028 
L 297.864506 -151.88509 
L 298.266744 -151.88509 
L 298.266744 -151.88509 
L 298.366739 -150.777028 
L 298.499026 -149.668967 
L 298.665332 -148.560906 
L 298.863406 -147.452845 
L 299.085931 -146.344784 
L 299.320167 -145.236722 
L 299.548665 -144.128661 
L 299.751157 -143.0206 
L 299.907418 -141.912539 
L 300.00056 -140.804478 
L 300.020031 -139.696417 
L 299.963582 -138.588355 
L 299.837693 -137.480294 
L 299.65635 -136.372233 
L 299.438491 -135.264172 
L 299.204762 -134.156111 
L 298.974354 -133.048049 
L 298.762569 -131.939988 
L 298.579504 -130.831927 
L 298.429889 -129.723866 
L 298.313857 -128.615805 
L 298.228245 -127.507744 
L 298.168039 -126.399682 
L 298.127627 -125.291621 
L 298.101708 -124.18356 
L 298.08581 -123.075499 
L 298.076479 -121.967438 
L 298.071235 -120.859377 
L 298.068412 -119.751315 
L 298.066956 -118.643254 
L 298.066236 -117.535193 
L 298.065894 -116.427132 
L 298.065739 -115.319071 
L 298.065672 -114.211009 
L 298.065643 -113.102948 
L 298.065632 -111.994887 
L 298.065627 -110.886826 
L 298.065626 -109.778765 
L 298.065625 -108.670704 
L 298.065625 -107.562642 
L 298.065625 -106.454581 
L 298.065625 -105.34652 
L 298.065625 -104.238459 
L 298.065625 -103.130398 
L 298.065626 -102.022336 
L 298.065629 -100.914275 
L 298.065635 -99.806214 
L 298.065652 -98.698153 
L 298.065694 -97.590092 
L 298.065794 -96.482031 
L 298.066023 -95.373969 
L 298.066525 -94.265908 
L 298.067586 -93.157847 
L 298.069741 -92.049786 
L 298.07395 -90.941725 
L 298.081852 -89.833664 
L 298.096117 -88.725602 
L 298.120889 -87.617541 
L 298.16227 -86.50948 
L 298.228794 -85.401419 
L 298.331753 -84.293358 
L 298.485276 -83.185296 
L 298.706039 -82.077235 
L 299.012627 -80.969174 
L 299.424711 -79.861113 
L 299.962412 -78.753052 
L 300.646398 -77.644991 
L 301.49934 -76.536929 
L 302.549113 -75.428868 
L 303.833672 -74.320807 
L 305.406704 -73.212746 
L 307.342183 -72.104685 
L 309.735129 -70.996623 
L 312.695548 -69.888562 
L 316.333161 -68.780501 
L 320.732324 -67.67244 
L 325.919448 -66.564379 
L 331.828607 -65.456318 
L 338.273883 -64.348256 
L 344.938074 -63.240195 
L 351.385754 -62.132134 
L 357.103933 -61.024073 
L 361.566804 -59.916012 
L 364.313862 -58.807951 
L 365.025625 -57.699889 
L 363.580063 -56.591828 
L 360.076461 -55.483767 
L 354.820997 -54.375706 
L 348.277482 -53.267645 
L 340.994786 -52.159583 
L 333.527042 -51.051522 
L 326.362796 -49.943461 
L 319.875194 -48.8354 
L 314.298873 -47.727339 
L 309.732512 -46.619278 
L 306.160876 -45.511216 
L 303.487655 -44.403155 
L 301.570528 -43.295094 
L 300.251846 -42.187033 
z
" style="stroke: #3f3f3f; stroke-width: 1.5"/>
    </defs>
    <g clip-path="url(#pd888901fe5)">
     <use xlink:href="#md69d2dc964" x="0" y="263.63625" style="fill: #e1812c; stroke: #3f3f3f; stroke-width: 1.5"/>
    </g>
   </g>
   <g id="matplotlib.axis_1">
    <g id="xtick_1">
     <g id="line2d_1">
      <defs>
       <path id="mf7f5209fc4" d="M 0 0 
L 0 3.5 
" style="stroke: #000000; stroke-width: 0.8"/>
      </defs>
      <g>
       <use xlink:href="#mf7f5209fc4" x="130.665625" y="239.758125" style="stroke: #000000; stroke-width: 0.8"/>
      </g>
     </g>
     <g id="text_1">
      <!-- GZoltar -->
      <g transform="translate(111.838281 254.356563)scale(0.1 -0.1)">
       <defs>
        <path id="DejaVuSans-47" d="M 3809 666 
L 3809 1919 
L 2778 1919 
L 2778 2438 
L 4434 2438 
L 4434 434 
Q 4069 175 3628 42 
Q 3188 -91 2688 -91 
Q 1594 -91 976 548 
Q 359 1188 359 2328 
Q 359 3472 976 4111 
Q 1594 4750 2688 4750 
Q 3144 4750 3555 4637 
Q 3966 4525 4313 4306 
L 4313 3634 
Q 3963 3931 3569 4081 
Q 3175 4231 2741 4231 
Q 1884 4231 1454 3753 
Q 1025 3275 1025 2328 
Q 1025 1384 1454 906 
Q 1884 428 2741 428 
Q 3075 428 3337 486 
Q 3600 544 3809 666 
z
" transform="scale(0.015625)"/>
        <path id="DejaVuSans-5a" d="M 359 4666 
L 4025 4666 
L 4025 4184 
L 1075 531 
L 4097 531 
L 4097 0 
L 288 0 
L 288 481 
L 3238 4134 
L 359 4134 
L 359 4666 
z
" transform="scale(0.015625)"/>
        <path id="DejaVuSans-6f" d="M 1959 3097 
Q 1497 3097 1228 2736 
Q 959 2375 959 1747 
Q 959 1119 1226 758 
Q 1494 397 1959 397 
Q 2419 397 2687 759 
Q 2956 1122 2956 1747 
Q 2956 2369 2687 2733 
Q 2419 3097 1959 3097 
z
M 1959 3584 
Q 2709 3584 3137 3096 
Q 3566 2609 3566 1747 
Q 3566 888 3137 398 
Q 2709 -91 1959 -91 
Q 1206 -91 779 398 
Q 353 888 353 1747 
Q 353 2609 779 3096 
Q 1206 3584 1959 3584 
z
" transform="scale(0.015625)"/>
        <path id="DejaVuSans-6c" d="M 603 4863 
L 1178 4863 
L 1178 0 
L 603 0 
L 603 4863 
z
" transform="scale(0.015625)"/>
        <path id="DejaVuSans-74" d="M 1172 4494 
L 1172 3500 
L 2356 3500 
L 2356 3053 
L 1172 3053 
L 1172 1153 
Q 1172 725 1289 603 
Q 1406 481 1766 481 
L 2356 481 
L 2356 0 
L 1766 0 
Q 1100 0 847 248 
Q 594 497 594 1153 
L 594 3053 
L 172 3053 
L 172 3500 
L 594 3500 
L 594 4494 
L 1172 4494 
z
" transform="scale(0.015625)"/>
        <path id="DejaVuSans-61" d="M 2194 1759 
Q 1497 1759 1228 1600 
Q 959 1441 959 1056 
Q 959 750 1161 570 
Q 1363 391 1709 391 
Q 2188 391 2477 730 
Q 2766 1069 2766 1631 
L 2766 1759 
L 2194 1759 
z
M 3341 1997 
L 3341 0 
L 2766 0 
L 2766 531 
Q 2569 213 2275 61 
Q 1981 -91 1556 -91 
Q 1019 -91 701 211 
Q 384 513 384 1019 
Q 384 1609 779 1909 
Q 1175 2209 1959 2209 
L 2766 2209 
L 2766 2266 
Q 2766 2663 2505 2880 
Q 2244 3097 1772 3097 
Q 1472 3097 1187 3025 
Q 903 2953 641 2809 
L 641 3341 
Q 956 3463 1253 3523 
Q 1550 3584 1831 3584 
Q 2591 3584 2966 3190 
Q 3341 2797 3341 1997 
z
" transform="scale(0.015625)"/>
        <path id="DejaVuSans-72" d="M 2631 2963 
Q 2534 3019 2420 3045 
Q 2306 3072 2169 3072 
Q 1681 3072 1420 2755 
Q 1159 2438 1159 1844 
L 1159 0 
L 581 0 
L 581 3500 
L 1159 3500 
L 1159 2956 
Q 1341 3275 1631 3429 
Q 1922 3584 2338 3584 
Q 2397 3584 2469 3576 
Q 2541 3569 2628 3553 
L 2631 2963 
z
" transform="scale(0.015625)"/>
       </defs>
       <use xlink:href="#DejaVuSans-47"/>
       <use xlink:href="#DejaVuSans-5a" x="77.490234"/>
       <use xlink:href="#DejaVuSans-6f" x="145.996094"/>
       <use xlink:href="#DejaVuSans-6c" x="207.177734"/>
       <use xlink:href="#DejaVuSans-74" x="234.960938"/>
       <use xlink:href="#DejaVuSans-61" x="274.169922"/>
       <use xlink:href="#DejaVuSans-72" x="335.449219"/>
      </g>
     </g>
    </g>
    <g id="xtick_2">
     <g id="line2d_2">
      <g>
       <use xlink:href="#mf7f5209fc4" x="298.065625" y="239.758125" style="stroke: #000000; stroke-width: 0.8"/>
      </g>
     </g>
     <g id="text_2">
      <!-- Flacoco -->
      <g transform="translate(279.119531 254.356563)scale(0.1 -0.1)">
       <defs>
        <path id="DejaVuSans-46" d="M 628 4666 
L 3309 4666 
L 3309 4134 
L 1259 4134 
L 1259 2759 
L 3109 2759 
L 3109 2228 
L 1259 2228 
L 1259 0 
L 628 0 
L 628 4666 
z
" transform="scale(0.015625)"/>
        <path id="DejaVuSans-63" d="M 3122 3366 
L 3122 2828 
Q 2878 2963 2633 3030 
Q 2388 3097 2138 3097 
Q 1578 3097 1268 2742 
Q 959 2388 959 1747 
Q 959 1106 1268 751 
Q 1578 397 2138 397 
Q 2388 397 2633 464 
Q 2878 531 3122 666 
L 3122 134 
Q 2881 22 2623 -34 
Q 2366 -91 2075 -91 
Q 1284 -91 818 406 
Q 353 903 353 1747 
Q 353 2603 823 3093 
Q 1294 3584 2113 3584 
Q 2378 3584 2631 3529 
Q 2884 3475 3122 3366 
z
" transform="scale(0.015625)"/>
       </defs>
       <use xlink:href="#DejaVuSans-46"/>
       <use xlink:href="#DejaVuSans-6c" x="57.519531"/>
       <use xlink:href="#DejaVuSans-61" x="85.302734"/>
       <use xlink:href="#DejaVuSans-63" x="146.582031"/>
       <use xlink:href="#DejaVuSans-6f" x="201.5625"/>
       <use xlink:href="#DejaVuSans-63" x="262.744141"/>
       <use xlink:href="#DejaVuSans-6f" x="317.724609"/>
      </g>
     </g>
    </g>
   </g>
   <g id="matplotlib.axis_2">
    <g id="ytick_1">
     <g id="line2d_3">
      <defs>
       <path id="ma4b227dca1" d="M 0 0 
L -3.5 0 
" style="stroke: #000000; stroke-width: 0.8"/>
      </defs>
      <g>
       <use xlink:href="#ma4b227dca1" x="46.965625" y="212.430177" style="stroke: #000000; stroke-width: 0.8"/>
      </g>
     </g>
     <g id="text_3">
      <!-- 0 -->
      <g transform="translate(33.603125 216.229396)scale(0.1 -0.1)">
       <defs>
        <path id="DejaVuSans-30" d="M 2034 4250 
Q 1547 4250 1301 3770 
Q 1056 3291 1056 2328 
Q 1056 1369 1301 889 
Q 1547 409 2034 409 
Q 2525 409 2770 889 
Q 3016 1369 3016 2328 
Q 3016 3291 2770 3770 
Q 2525 4250 2034 4250 
z
M 2034 4750 
Q 2819 4750 3233 4129 
Q 3647 3509 3647 2328 
Q 3647 1150 3233 529 
Q 2819 -91 2034 -91 
Q 1250 -91 836 529 
Q 422 1150 422 2328 
Q 422 3509 836 4129 
Q 1250 4750 2034 4750 
z
" transform="scale(0.015625)"/>
       </defs>
       <use xlink:href="#DejaVuSans-30"/>
      </g>
     </g>
    </g>
    <g id="ytick_2">
     <g id="line2d_4">
      <g>
       <use xlink:href="#ma4b227dca1" x="46.965625" y="179.418589" style="stroke: #000000; stroke-width: 0.8"/>
      </g>
     </g>
     <g id="text_4">
      <!-- 50 -->
      <g transform="translate(27.240625 183.217807)scale(0.1 -0.1)">
       <defs>
        <path id="DejaVuSans-35" d="M 691 4666 
L 3169 4666 
L 3169 4134 
L 1269 4134 
L 1269 2991 
Q 1406 3038 1543 3061 
Q 1681 3084 1819 3084 
Q 2600 3084 3056 2656 
Q 3513 2228 3513 1497 
Q 3513 744 3044 326 
Q 2575 -91 1722 -91 
Q 1428 -91 1123 -41 
Q 819 9 494 109 
L 494 744 
Q 775 591 1075 516 
Q 1375 441 1709 441 
Q 2250 441 2565 725 
Q 2881 1009 2881 1497 
Q 2881 1984 2565 2268 
Q 2250 2553 1709 2553 
Q 1456 2553 1204 2497 
Q 953 2441 691 2322 
L 691 4666 
z
" transform="scale(0.015625)"/>
       </defs>
       <use xlink:href="#DejaVuSans-35"/>
       <use xlink:href="#DejaVuSans-30" x="63.623047"/>
      </g>
     </g>
    </g>
    <g id="ytick_3">
     <g id="line2d_5">
      <g>
       <use xlink:href="#ma4b227dca1" x="46.965625" y="146.407" style="stroke: #000000; stroke-width: 0.8"/>
      </g>
     </g>
     <g id="text_5">
      <!-- 100 -->
      <g transform="translate(20.878125 150.206219)scale(0.1 -0.1)">
       <defs>
        <path id="DejaVuSans-31" d="M 794 531 
L 1825 531 
L 1825 4091 
L 703 3866 
L 703 4441 
L 1819 4666 
L 2450 4666 
L 2450 531 
L 3481 531 
L 3481 0 
L 794 0 
L 794 531 
z
" transform="scale(0.015625)"/>
       </defs>
       <use xlink:href="#DejaVuSans-31"/>
       <use xlink:href="#DejaVuSans-30" x="63.623047"/>
       <use xlink:href="#DejaVuSans-30" x="127.246094"/>
      </g>
     </g>
    </g>
    <g id="ytick_4">
     <g id="line2d_6">
      <g>
       <use xlink:href="#ma4b227dca1" x="46.965625" y="113.395412" style="stroke: #000000; stroke-width: 0.8"/>
      </g>
     </g>
     <g id="text_6">
      <!-- 150 -->
      <g transform="translate(20.878125 117.19463)scale(0.1 -0.1)">
       <use xlink:href="#DejaVuSans-31"/>
       <use xlink:href="#DejaVuSans-35" x="63.623047"/>
       <use xlink:href="#DejaVuSans-30" x="127.246094"/>
      </g>
     </g>
    </g>
    <g id="ytick_5">
     <g id="line2d_7">
      <g>
       <use xlink:href="#ma4b227dca1" x="46.965625" y="80.383823" style="stroke: #000000; stroke-width: 0.8"/>
      </g>
     </g>
     <g id="text_7">
      <!-- 200 -->
      <g transform="translate(20.878125 84.183042)scale(0.1 -0.1)">
       <defs>
        <path id="DejaVuSans-32" d="M 1228 531 
L 3431 531 
L 3431 0 
L 469 0 
L 469 531 
Q 828 903 1448 1529 
Q 2069 2156 2228 2338 
Q 2531 2678 2651 2914 
Q 2772 3150 2772 3378 
Q 2772 3750 2511 3984 
Q 2250 4219 1831 4219 
Q 1534 4219 1204 4116 
Q 875 4013 500 3803 
L 500 4441 
Q 881 4594 1212 4672 
Q 1544 4750 1819 4750 
Q 2544 4750 2975 4387 
Q 3406 4025 3406 3419 
Q 3406 3131 3298 2873 
Q 3191 2616 2906 2266 
Q 2828 2175 2409 1742 
Q 1991 1309 1228 531 
z
" transform="scale(0.015625)"/>
       </defs>
       <use xlink:href="#DejaVuSans-32"/>
       <use xlink:href="#DejaVuSans-30" x="63.623047"/>
       <use xlink:href="#DejaVuSans-30" x="127.246094"/>
      </g>
     </g>
    </g>
    <g id="ytick_6">
     <g id="line2d_8">
      <g>
       <use xlink:href="#ma4b227dca1" x="46.965625" y="47.372235" style="stroke: #000000; stroke-width: 0.8"/>
      </g>
     </g>
     <g id="text_8">
      <!-- 250 -->
      <g transform="translate(20.878125 51.171453)scale(0.1 -0.1)">
       <use xlink:href="#DejaVuSans-32"/>
       <use xlink:href="#DejaVuSans-35" x="63.623047"/>
       <use xlink:href="#DejaVuSans-30" x="127.246094"/>
      </g>
     </g>
    </g>
    <g id="text_9">
     <!-- Execution Time (s) -->
     <g transform="translate(14.798438 177.490469)rotate(-90)scale(0.1 -0.1)">
      <defs>
       <path id="DejaVuSans-45" d="M 628 4666 
L 3578 4666 
L 3578 4134 
L 1259 4134 
L 1259 2753 
L 3481 2753 
L 3481 2222 
L 1259 2222 
L 1259 531 
L 3634 531 
L 3634 0 
L 628 0 
L 628 4666 
z
" transform="scale(0.015625)"/>
       <path id="DejaVuSans-78" d="M 3513 3500 
L 2247 1797 
L 3578 0 
L 2900 0 
L 1881 1375 
L 863 0 
L 184 0 
L 1544 1831 
L 300 3500 
L 978 3500 
L 1906 2253 
L 2834 3500 
L 3513 3500 
z
" transform="scale(0.015625)"/>
       <path id="DejaVuSans-65" d="M 3597 1894 
L 3597 1613 
L 953 1613 
Q 991 1019 1311 708 
Q 1631 397 2203 397 
Q 2534 397 2845 478 
Q 3156 559 3463 722 
L 3463 178 
Q 3153 47 2828 -22 
Q 2503 -91 2169 -91 
Q 1331 -91 842 396 
Q 353 884 353 1716 
Q 353 2575 817 3079 
Q 1281 3584 2069 3584 
Q 2775 3584 3186 3129 
Q 3597 2675 3597 1894 
z
M 3022 2063 
Q 3016 2534 2758 2815 
Q 2500 3097 2075 3097 
Q 1594 3097 1305 2825 
Q 1016 2553 972 2059 
L 3022 2063 
z
" transform="scale(0.015625)"/>
       <path id="DejaVuSans-75" d="M 544 1381 
L 544 3500 
L 1119 3500 
L 1119 1403 
Q 1119 906 1312 657 
Q 1506 409 1894 409 
Q 2359 409 2629 706 
Q 2900 1003 2900 1516 
L 2900 3500 
L 3475 3500 
L 3475 0 
L 2900 0 
L 2900 538 
Q 2691 219 2414 64 
Q 2138 -91 1772 -91 
Q 1169 -91 856 284 
Q 544 659 544 1381 
z
M 1991 3584 
L 1991 3584 
z
" transform="scale(0.015625)"/>
       <path id="DejaVuSans-69" d="M 603 3500 
L 1178 3500 
L 1178 0 
L 603 0 
L 603 3500 
z
M 603 4863 
L 1178 4863 
L 1178 4134 
L 603 4134 
L 603 4863 
z
" transform="scale(0.015625)"/>
       <path id="DejaVuSans-6e" d="M 3513 2113 
L 3513 0 
L 2938 0 
L 2938 2094 
Q 2938 2591 2744 2837 
Q 2550 3084 2163 3084 
Q 1697 3084 1428 2787 
Q 1159 2491 1159 1978 
L 1159 0 
L 581 0 
L 581 3500 
L 1159 3500 
L 1159 2956 
Q 1366 3272 1645 3428 
Q 1925 3584 2291 3584 
Q 2894 3584 3203 3211 
Q 3513 2838 3513 2113 
z
" transform="scale(0.015625)"/>
       <path id="DejaVuSans-20" transform="scale(0.015625)"/>
       <path id="DejaVuSans-54" d="M -19 4666 
L 3928 4666 
L 3928 4134 
L 2272 4134 
L 2272 0 
L 1638 0 
L 1638 4134 
L -19 4134 
L -19 4666 
z
" transform="scale(0.015625)"/>
       <path id="DejaVuSans-6d" d="M 3328 2828 
Q 3544 3216 3844 3400 
Q 4144 3584 4550 3584 
Q 5097 3584 5394 3201 
Q 5691 2819 5691 2113 
L 5691 0 
L 5113 0 
L 5113 2094 
Q 5113 2597 4934 2840 
Q 4756 3084 4391 3084 
Q 3944 3084 3684 2787 
Q 3425 2491 3425 1978 
L 3425 0 
L 2847 0 
L 2847 2094 
Q 2847 2600 2669 2842 
Q 2491 3084 2119 3084 
Q 1678 3084 1418 2786 
Q 1159 2488 1159 1978 
L 1159 0 
L 581 0 
L 581 3500 
L 1159 3500 
L 1159 2956 
Q 1356 3278 1631 3431 
Q 1906 3584 2284 3584 
Q 2666 3584 2933 3390 
Q 3200 3197 3328 2828 
z
" transform="scale(0.015625)"/>
       <path id="DejaVuSans-28" d="M 1984 4856 
Q 1566 4138 1362 3434 
Q 1159 2731 1159 2009 
Q 1159 1288 1364 580 
Q 1569 -128 1984 -844 
L 1484 -844 
Q 1016 -109 783 600 
Q 550 1309 550 2009 
Q 550 2706 781 3412 
Q 1013 4119 1484 4856 
L 1984 4856 
z
" transform="scale(0.015625)"/>
       <path id="DejaVuSans-73" d="M 2834 3397 
L 2834 2853 
Q 2591 2978 2328 3040 
Q 2066 3103 1784 3103 
Q 1356 3103 1142 2972 
Q 928 2841 928 2578 
Q 928 2378 1081 2264 
Q 1234 2150 1697 2047 
L 1894 2003 
Q 2506 1872 2764 1633 
Q 3022 1394 3022 966 
Q 3022 478 2636 193 
Q 2250 -91 1575 -91 
Q 1294 -91 989 -36 
Q 684 19 347 128 
L 347 722 
Q 666 556 975 473 
Q 1284 391 1588 391 
Q 1994 391 2212 530 
Q 2431 669 2431 922 
Q 2431 1156 2273 1281 
Q 2116 1406 1581 1522 
L 1381 1569 
Q 847 1681 609 1914 
Q 372 2147 372 2553 
Q 372 3047 722 3315 
Q 1072 3584 1716 3584 
Q 2034 3584 2315 3537 
Q 2597 3491 2834 3397 
z
" transform="scale(0.015625)"/>
       <path id="DejaVuSans-29" d="M 513 4856 
L 1013 4856 
Q 1481 4119 1714 3412 
Q 1947 2706 1947 2009 
Q 1947 1309 1714 600 
Q 1481 -109 1013 -844 
L 513 -844 
Q 928 -128 1133 580 
Q 1338 1288 1338 2009 
Q 1338 2731 1133 3434 
Q 928 4138 513 4856 
z
" transform="scale(0.015625)"/>
      </defs>
      <use xlink:href="#DejaVuSans-45"/>
      <use xlink:href="#DejaVuSans-78" x="63.183594"/>
      <use xlink:href="#DejaVuSans-65" x="119.238281"/>
      <use xlink:href="#DejaVuSans-63" x="180.761719"/>
      <use xlink:href="#DejaVuSans-75" x="235.742188"/>
      <use xlink:href="#DejaVuSans-74" x="299.121094"/>
      <use xlink:href="#DejaVuSans-69" x="338.330078"/>
      <use xlink:href="#DejaVuSans-6f" x="366.113281"/>
      <use xlink:href="#DejaVuSans-6e" x="427.294922"/>
      <use xlink:href="#DejaVuSans-20" x="490.673828"/>
      <use xlink:href="#DejaVuSans-54" x="522.460938"/>
      <use xlink:href="#DejaVuSans-69" x="580.419922"/>
      <use xlink:href="#DejaVuSans-6d" x="608.203125"/>
      <use xlink:href="#DejaVuSans-65" x="705.615234"/>
      <use xlink:href="#DejaVuSans-20" x="767.138672"/>
      <use xlink:href="#DejaVuSans-28" x="798.925781"/>
      <use xlink:href="#DejaVuSans-73" x="837.939453"/>
      <use xlink:href="#DejaVuSans-29" x="890.039062"/>
     </g>
    </g>
   </g>
   <g id="line2d_9">
    <path d="M 130.665625 209.513933 
L 130.665625 164.567335 
" clip-path="url(#pd888901fe5)" style="fill: none; stroke: #3f3f3f; stroke-width: 1.5; stroke-linecap: square"/>
   </g>
   <g id="line2d_10">
    <path d="M 130.665625 199.965662 
L 130.665625 180.22077 
" clip-path="url(#pd888901fe5)" style="fill: none; stroke: #3f3f3f; stroke-width: 4.5; stroke-linecap: square"/>
   </g>
   <g id="line2d_11">
    <path d="M 298.065625 210.418451 
L 298.065625 201.484195 
" clip-path="url(#pd888901fe5)" style="fill: none; stroke: #3f3f3f; stroke-width: 1.5; stroke-linecap: square"/>
   </g>
   <g id="line2d_12">
    <path d="M 298.065625 206.834053 
L 298.065625 204.021465 
" clip-path="url(#pd888901fe5)" style="fill: none; stroke: #3f3f3f; stroke-width: 4.5; stroke-linecap: square"/>
   </g>
   <g id="patch_3">
    <path d="M 46.965625 239.758125 
L 46.965625 22.318125 
" style="fill: none; stroke: #000000; stroke-width: 0.8; stroke-linejoin: miter; stroke-linecap: square"/>
   </g>
   <g id="patch_4">
    <path d="M 381.765625 239.758125 
L 381.765625 22.318125 
" style="fill: none; stroke: #000000; stroke-width: 0.8; stroke-linejoin: miter; stroke-linecap: square"/>
   </g>
   <g id="patch_5">
    <path d="M 46.965625 239.758125 
L 381.765625 239.758125 
" style="fill: none; stroke: #000000; stroke-width: 0.8; stroke-linejoin: miter; stroke-linecap: square"/>
   </g>
   <g id="patch_6">
    <path d="M 46.965625 22.318125 
L 381.765625 22.318125 
" style="fill: none; stroke: #000000; stroke-width: 0.8; stroke-linejoin: miter; stroke-linecap: square"/>
   </g>
   <g id="PathCollection_1">
    <defs>
     <path id="m0f9535f437" d="M 0 1.5 
C 0.397805 1.5 0.77937 1.341951 1.06066 1.06066 
C 1.341951 0.77937 1.5 0.397805 1.5 0 
C 1.5 -0.397805 1.341951 -0.77937 1.06066 -1.06066 
C 0.77937 -1.341951 0.397805 -1.5 0 -1.5 
C -0.397805 -1.5 -0.77937 -1.341951 -1.06066 -1.06066 
C -1.341951 -0.77937 -1.5 -0.397805 -1.5 0 
C -1.5 0.397805 -1.341951 0.77937 -1.06066 1.06066 
C -0.77937 1.341951 -0.397805 1.5 0 1.5 
z
" style="stroke: #3f3f3f"/>
    </defs>
    <g clip-path="url(#pd888901fe5)">
     <use xlink:href="#m0f9535f437" x="130.665625" y="187.477378" style="fill: #ffffff; stroke: #3f3f3f"/>
    </g>
   </g>
   <g id="PathCollection_2">
    <g clip-path="url(#pd888901fe5)">
     <use xlink:href="#m0f9535f437" x="298.065625" y="205.60272" style="fill: #ffffff; stroke: #3f3f3f"/>
    </g>
   </g>
   <g id="text_10">
    <!-- Execution time (s) per fault localization (target=java11) -->
    <g transform="translate(46.415313 16.318125)scale(0.12 -0.12)">
     <defs>
      <path id="DejaVuSans-70" d="M 1159 525 
L 1159 -1331 
L 581 -1331 
L 581 3500 
L 1159 3500 
L 1159 2969 
Q 1341 3281 1617 3432 
Q 1894 3584 2278 3584 
Q 2916 3584 3314 3078 
Q 3713 2572 3713 1747 
Q 3713 922 3314 415 
Q 2916 -91 2278 -91 
Q 1894 -91 1617 61 
Q 1341 213 1159 525 
z
M 3116 1747 
Q 3116 2381 2855 2742 
Q 2594 3103 2138 3103 
Q 1681 3103 1420 2742 
Q 1159 2381 1159 1747 
Q 1159 1113 1420 752 
Q 1681 391 2138 391 
Q 2594 391 2855 752 
Q 3116 1113 3116 1747 
z
" transform="scale(0.015625)"/>
      <path id="DejaVuSans-66" d="M 2375 4863 
L 2375 4384 
L 1825 4384 
Q 1516 4384 1395 4259 
Q 1275 4134 1275 3809 
L 1275 3500 
L 2222 3500 
L 2222 3053 
L 1275 3053 
L 1275 0 
L 697 0 
L 697 3053 
L 147 3053 
L 147 3500 
L 697 3500 
L 697 3744 
Q 697 4328 969 4595 
Q 1241 4863 1831 4863 
L 2375 4863 
z
" transform="scale(0.015625)"/>
      <path id="DejaVuSans-7a" d="M 353 3500 
L 3084 3500 
L 3084 2975 
L 922 459 
L 3084 459 
L 3084 0 
L 275 0 
L 275 525 
L 2438 3041 
L 353 3041 
L 353 3500 
z
" transform="scale(0.015625)"/>
      <path id="DejaVuSans-67" d="M 2906 1791 
Q 2906 2416 2648 2759 
Q 2391 3103 1925 3103 
Q 1463 3103 1205 2759 
Q 947 2416 947 1791 
Q 947 1169 1205 825 
Q 1463 481 1925 481 
Q 2391 481 2648 825 
Q 2906 1169 2906 1791 
z
M 3481 434 
Q 3481 -459 3084 -895 
Q 2688 -1331 1869 -1331 
Q 1566 -1331 1297 -1286 
Q 1028 -1241 775 -1147 
L 775 -588 
Q 1028 -725 1275 -790 
Q 1522 -856 1778 -856 
Q 2344 -856 2625 -561 
Q 2906 -266 2906 331 
L 2906 616 
Q 2728 306 2450 153 
Q 2172 0 1784 0 
Q 1141 0 747 490 
Q 353 981 353 1791 
Q 353 2603 747 3093 
Q 1141 3584 1784 3584 
Q 2172 3584 2450 3431 
Q 2728 3278 2906 2969 
L 2906 3500 
L 3481 3500 
L 3481 434 
z
" transform="scale(0.015625)"/>
      <path id="DejaVuSans-3d" d="M 678 2906 
L 4684 2906 
L 4684 2381 
L 678 2381 
L 678 2906 
z
M 678 1631 
L 4684 1631 
L 4684 1100 
L 678 1100 
L 678 1631 
z
" transform="scale(0.015625)"/>
      <path id="DejaVuSans-6a" d="M 603 3500 
L 1178 3500 
L 1178 -63 
Q 1178 -731 923 -1031 
Q 669 -1331 103 -1331 
L -116 -1331 
L -116 -844 
L 38 -844 
Q 366 -844 484 -692 
Q 603 -541 603 -63 
L 603 3500 
z
M 603 4863 
L 1178 4863 
L 1178 4134 
L 603 4134 
L 603 4863 
z
" transform="scale(0.015625)"/>
      <path id="DejaVuSans-76" d="M 191 3500 
L 800 3500 
L 1894 563 
L 2988 3500 
L 3597 3500 
L 2284 0 
L 1503 0 
L 191 3500 
z
" transform="scale(0.015625)"/>
     </defs>
     <use xlink:href="#DejaVuSans-45"/>
     <use xlink:href="#DejaVuSans-78" x="63.183594"/>
     <use xlink:href="#DejaVuSans-65" x="119.238281"/>
     <use xlink:href="#DejaVuSans-63" x="180.761719"/>
     <use xlink:href="#DejaVuSans-75" x="235.742188"/>
     <use xlink:href="#DejaVuSans-74" x="299.121094"/>
     <use xlink:href="#DejaVuSans-69" x="338.330078"/>
     <use xlink:href="#DejaVuSans-6f" x="366.113281"/>
     <use xlink:href="#DejaVuSans-6e" x="427.294922"/>
     <use xlink:href="#DejaVuSans-20" x="490.673828"/>
     <use xlink:href="#DejaVuSans-74" x="522.460938"/>
     <use xlink:href="#DejaVuSans-69" x="561.669922"/>
     <use xlink:href="#DejaVuSans-6d" x="589.453125"/>
     <use xlink:href="#DejaVuSans-65" x="686.865234"/>
     <use xlink:href="#DejaVuSans-20" x="748.388672"/>
     <use xlink:href="#DejaVuSans-28" x="780.175781"/>
     <use xlink:href="#DejaVuSans-73" x="819.189453"/>
     <use xlink:href="#DejaVuSans-29" x="871.289062"/>
     <use xlink:href="#DejaVuSans-20" x="910.302734"/>
     <use xlink:href="#DejaVuSans-70" x="942.089844"/>
     <use xlink:href="#DejaVuSans-65" x="1005.566406"/>
     <use xlink:href="#DejaVuSans-72" x="1067.089844"/>
     <use xlink:href="#DejaVuSans-20" x="1108.203125"/>
     <use xlink:href="#DejaVuSans-66" x="1139.990234"/>
     <use xlink:href="#DejaVuSans-61" x="1175.195312"/>
     <use xlink:href="#DejaVuSans-75" x="1236.474609"/>
     <use xlink:href="#DejaVuSans-6c" x="1299.853516"/>
     <use xlink:href="#DejaVuSans-74" x="1327.636719"/>
     <use xlink:href="#DejaVuSans-20" x="1366.845703"/>
     <use xlink:href="#DejaVuSans-6c" x="1398.632812"/>
     <use xlink:href="#DejaVuSans-6f" x="1426.416016"/>
     <use xlink:href="#DejaVuSans-63" x="1487.597656"/>
     <use xlink:href="#DejaVuSans-61" x="1542.578125"/>
     <use xlink:href="#DejaVuSans-6c" x="1603.857422"/>
     <use xlink:href="#DejaVuSans-69" x="1631.640625"/>
     <use xlink:href="#DejaVuSans-7a" x="1659.423828"/>
     <use xlink:href="#DejaVuSans-61" x="1711.914062"/>
     <use xlink:href="#DejaVuSans-74" x="1773.193359"/>
     <use xlink:href="#DejaVuSans-69" x="1812.402344"/>
     <use xlink:href="#DejaVuSans-6f" x="1840.185547"/>
     <use xlink:href="#DejaVuSans-6e" x="1901.367188"/>
     <use xlink:href="#DejaVuSans-20" x="1964.746094"/>
     <use xlink:href="#DejaVuSans-28" x="1996.533203"/>
     <use xlink:href="#DejaVuSans-74" x="2035.546875"/>
     <use xlink:href="#DejaVuSans-61" x="2074.755859"/>
     <use xlink:href="#DejaVuSans-72" x="2136.035156"/>
     <use xlink:href="#DejaVuSans-67" x="2175.398438"/>
     <use xlink:href="#DejaVuSans-65" x="2238.875"/>
     <use xlink:href="#DejaVuSans-74" x="2300.398438"/>
     <use xlink:href="#DejaVuSans-3d" x="2339.607422"/>
     <use xlink:href="#DejaVuSans-6a" x="2423.396484"/>
     <use xlink:href="#DejaVuSans-61" x="2451.179688"/>
     <use xlink:href="#DejaVuSans-76" x="2512.458984"/>
     <use xlink:href="#DejaVuSans-61" x="2571.638672"/>
     <use xlink:href="#DejaVuSans-31" x="2632.917969"/>
     <use xlink:href="#DejaVuSans-31" x="2696.541016"/>
     <use xlink:href="#DejaVuSans-29" x="2760.164062"/>
    </g>
   </g>
  </g>
 </g>
 <defs>
  <clipPath id="pd888901fe5">
   <rect x="46.965625" y="22.318125" width="334.8" height="217.44"/>
  </clipPath>
 </defs>
</svg>
